<svg xmlns="http://www.w3.org/2000/svg" width="1096.063" height="396.85" viewBox="0 0 290 105"><style><![CDATA[.B{image-rendering:optimizeQuality}.C{shape-rendering:geometricPrecision}.D{fill-rule:evenodd}]]></style><g fill="#fff"><path d="M164.233 53.869h.813v3.458h-.813z" paint-order="fill markers stroke"/><g class="D B C"><path d="M135.764 32.161v41.102h10.795V52.145c1.815.037 3.769-.23 5.473.279 1.281.63 1.677 2.191 1.508 3.507l.004 17.331h10.797l-.099-20.218c-.383-4.161-3.215-7.993-7.125-9.502-3.333-1.407-7.022-1.2-10.559-1.197l.002-10.713h-10.795v.529zm-125.02.609v40.492h11.051V59.547h3.074l7.664 13.715h12.508l-9.186-16.051c3.708-2.241 5.975-6.527 5.947-10.836.176-4.032-1.28-8.305-4.542-10.838-3.266-2.666-7.635-3.448-11.751-3.297H10.745zm46.74 9c-6.682.248-12.783 5.475-14.094 12.026-1.312 5.698.302 12.192 4.754 16.13 2.64 2.434 6.174 3.802 9.755 3.894 3.204.151 6.413-.019 9.619.052h3.247v-9.779c-4.379-.059-8.766.12-13.139-.118-1.364-.239-2.563-1.2-3.148-2.449h18.563c1.277-3.605.899-7.654-.529-11.152-1.714-4.001-5.333-7.167-9.607-8.116-1.766-.446-3.604-.567-5.42-.489zm61.4-.01c-6.004.23-11.824 4.057-14.055 9.698-2.5 5.982-1.148 13.486 3.647 17.945 3.182 3.122 7.711 4.689 12.14 4.461 5.148-.136 10.378-2.816 12.858-7.442.615-1.096 1.016-2.294 1.345-3.503l-9.525-4.178c-.39 2.131-1.671 4.402-3.929 4.922-2.446.709-5.375-.601-6.198-3.076-.944-2.43-.652-5.52 1.217-7.438 1.986-1.936 5.534-1.841 7.346.289.696.693.994 1.651 1.396 2.502.65.817 1.754.333 2.479-.094l7.213-3.092c-.99-4.597-4.553-8.445-8.968-9.985-2.217-.829-4.609-1.109-6.965-1.011zm-41.846 1.119v9.25h14.465c.313.749-.385.748-.945.816-3.536.612-7.209.866-10.535 2.31-2.836 1.266-5.251 3.76-5.817 6.889-.801 3.599.505 7.808 3.744 9.787 3.368 2.167 7.687 2.357 11.483 1.377a12.86 12.86 0 0 0 2.56-1.034c-.107.68.56 1.167 1.192.986h9.126V42.35H77.039z"/><path d="M214.338 2.716h0a1.5 1.5 0 0 0-.263.026l-2.146 1.598c-.541.99-1.149 1.934-1.826 2.831-.763.799-1.57 1.545-2.42 2.237-.8.139-1.531.429-2.192.868l-.365-.091c-.626.183-1.266.29-1.918.32l-.776.959a37.98 37.98 0 0 0-1.963 3.836 4.05 4.05 0 0 0-.913.73c-.57.462-1.179.873-1.826 1.233l-.502.502-2.146 3.105-1.826 1.004-.183.274a5.02 5.02 0 0 1-.959.274c-.257-.048-.516-.079-.776-.091l-1.37.502c-.018.018-.014.033-.026.05l-.015-.009-.548.917a7.18 7.18 0 0 0-.232.869c.043.261.058.52.046.776a11.11 11.11 0 0 0-1.826 2.74 23.07 23.07 0 0 0-2.1 3.287c-.586.417-.967.965-1.141 1.644a3.32 3.32 0 0 0-.776.822c-.248.137-.507.228-.776.274-.083.065-.113.156-.091.274.181-.031.303.03.365.183-1.194.875-2.153 1.971-2.877 3.287a15.96 15.96 0 0 0-1.872 2.648c-.284.87-.665 1.692-1.141 2.466-.596.566-1.16 1.16-1.689 1.781-.945.404-1.751.998-2.42 1.781l-2.146 2.968-4.018 2.831-1.37 1.141c-.05.005-.08.036-.091.091l-.246.739c.073.361.06.739-.04 1.134l-.938 2.874-.036.523c-.053.514-.014 1.019.115 1.514l-.623 3.674-.191.174a4.43 4.43 0 0 1-.385 1.445l-1.047 1.998c.037.038-.018.034-.03.054l-.26.135-.775.351c-.551.214-.97.569-1.256 1.065l-2.036 5.173-.75 1.751-.792 3.177-.074.334c-.018.064-.035.08-.055.143l-.095.35a3.95 3.95 0 0 1-.281.778l.003.002-.803 5.761c-.027.645-.135 1.286-.322 1.924.003 1.072-.129 2.12-.397 3.146-.087.449-.263.875-.528 1.277a1.77 1.77 0 0 0-.287.678 1.63 1.63 0 0 1-.208.724 1.02 1.02 0 0 1-.162.645c.003.319-.07.628-.221.928l-2.233 4.405c-.161.278-.34.526-.537.745-.16.245-.193.486-.314.55l-.142.281c.144.103.089.245.249.172a26.66 26.66 0 0 1 5.388-3.561l3.095-2.139h.001a9.59 9.59 0 0 1 1.552-.868 57.93 57.93 0 0 0 5.936-5.022 11.12 11.12 0 0 0 3.014-2.831c.366-.184.701-.412 1.004-.685 1.484-1.621 3.067-3.128 4.749-4.52 1.02-.708 2.085-1.347 3.196-1.918a19.15 19.15 0 0 1 2.831-1.187 10.03 10.03 0 0 1 1.187-1.096l4.931-3.287c.566-.582 1.236-.993 2.009-1.233.471-.083.927-.22 1.37-.411.051-.035.081-.081.091-.137.768-.155 1.499-.398 2.192-.731.464-.174.951-.296 1.461-.365.242.008.455-.053.639-.183.334-.02.639-.112.913-.274a2.9 2.9 0 0 0 1.187-.183l3.562-.457c.242.008.455-.053.639-.183a10.46 10.46 0 0 0 1.187-.091c.164.012.316-.018.457-.091l2.466-.091 3.196-1.278c.306-.017.58-.109.822-.274a.52.52 0 0 1 .274.091c.32.077.625.016.913-.183a1.93 1.93 0 0 1 1.004-.274c.242.008.455-.053.639-.183.573-.084 1.151-.114 1.735-.091a.42.42 0 0 1 .091-.365c.398-.008.794-.038 1.187-.091h.684a1.95 1.95 0 0 1 .548-.456 1.97 1.97 0 0 0 .411.091c.801-.038 1.593-.129 2.374-.274.857-.185 1.709-.429 2.557-.73l4.292-1.735c.426-.051.822-.173 1.187-.365a2.61 2.61 0 0 1 .731-.274 13.76 13.76 0 0 1 2.74-.731 1.1 1.1 0 0 1 .548-.091c.352-.028.688-.089 1.004-.183a8.03 8.03 0 0 1 1.187-.183c.242.008.456-.053.639-.183.43-.171.887-.263 1.37-.274l3.105-.274c.206-.066.42-.096.639-.091l3.379-.183 5.023-.548c.242.008.456-.053.639-.183.274.019.517-.042.731-.183.334-.02.639-.112.913-.274a12.03 12.03 0 0 1 2.648-.639c.242.008.456-.053.639-.183.206-.066.42-.096.639-.091h.457l2.49-.562 2.532-.032c.289-.029.533-.136.731-.32.679-.325 1.319-.721 1.918-1.187.261-.387.338-.813.228-1.278a4.58 4.58 0 0 0-2.877-2.831c-.038-.066-.099-.112-.183-.137-.274-.033-.544-.048-.811-.046-.344.002-.682.033-1.015.092-.141.073-.293.103-.457.091a3.2 3.2 0 0 0-1.004.274c-.098.085-.219.116-.365.091a5.66 5.66 0 0 0-1.187.274c-.13.087-.282.117-.457.091a5.66 5.66 0 0 0-1.187.274 1.1 1.1 0 0 1-.548.091l-.822.091a.26.26 0 0 0-.091-.228 7.74 7.74 0 0 0-1.187-.046 2.48 2.48 0 0 0-.685-.091c-.375-.014-.726.047-1.05.183a.42.42 0 0 1-.365.091c-.274-.019-.517.042-.731.183l-1.37.183c-.569.034-1.117.125-1.644.274a10.39 10.39 0 0 1-1.37.091 4.71 4.71 0 0 0-1.735 0 53.13 53.13 0 0 1-4.566-.183c-.665-.135-1.35-.196-2.055-.183a9.33 9.33 0 0 0-1.324.091h-.091c-.242-.008-.456.052-.639.183-.288-.014-.525.077-.717.265l-1.312.224c-.299-.013-.597-.001-.893.058l-1.187.183h-.274v-1.461a.42.42 0 0 0 .365-.091c.849-.061 1.701-.183 2.557-.365.662-.016 1.301-.108 1.918-.274l2.557-.639a2.69 2.69 0 0 0 1.278-.457c.66-.347 1.361-.438 2.1-.274.393.064.788.094 1.187.091h.183c.049-.005.08-.036.091-.091a3.91 3.91 0 0 0-.822-.137c.274-.098.548-.174.822-.228.501-.085 1.019-.146 1.552-.183a5.52 5.52 0 0 0 2.1-.365h.183c.811-.033 1.603-.124 2.374-.274.253-.106.527-.167.822-.183.242.008.456-.052.639-.183a2.29 2.29 0 0 1 1.004-.274c.692-.064 1.362-.185 2.009-.365l1.735-.274 1.461-.183a1.22 1.22 0 0 0 .457-.502l1.461-.502c.242.008.456-.053.639-.183.193-.088.405-.119.639-.091l3.196-.548a1.76 1.76 0 0 1 .548-.091c.552-.062 1.07-.215 1.553-.457.265-.098.539-.159.822-.183.274.019.517-.042.731-.183.242.008.456-.052.639-.183l2.648-.548c.426-.051.822-.173 1.187-.365.564-.127 1.112-.31 1.644-.548l.368-.164.382-.131.395-.097.408-.064 2.1-.685 1.872-2.146c.297-.543.388-1.122.274-1.735-.299-.806-.542-1.627-.73-2.465a6.62 6.62 0 0 0-1.142-2.146 3.33 3.33 0 0 0-1.291-.223 3.55 3.55 0 0 0-.444.04 18.49 18.49 0 0 0-7.671 3.561 5.56 5.56 0 0 1-1.918.685c-.177.152-.39.213-.639.183h-.183c-.177.152-.39.213-.639.183l-2.831.365a2.87 2.87 0 0 1-1.279.183l-1.644.548c-.107.073-.222.132-.343.178a1.77 1.77 0 0 1-.387.096c-1.032.085-2.067.116-3.105.091l-2.1.365-2.739.776-2.466.32a4.31 4.31 0 0 0-1.096.228c-.051.035-.081.081-.091.137a52.28 52.28 0 0 0-5.114 1.278l-4.475.274-1.726.168-1.555.103a7.95 7.95 0 0 1 3.006-1.459c.294.014.537-.077.731-.274.184-.143.396-.234.639-.274.312-.003.586-.094.822-.274a22.33 22.33 0 0 1 2.74-.731c.327-.004.631-.065.913-.183.13-.087.282-.117.457-.091a.65.65 0 0 0 .548-.183 7.77 7.77 0 0 1 1.461-.274c.268-.006.51-.067.73-.183a1.66 1.66 0 0 1 .731-.183c.459-.038.886-.16 1.278-.365a4.06 4.06 0 0 1 2.283-.639c.019-.033.044-.061.074-.084s.066-.041.108-.053a2.98 2.98 0 0 1 .364-.046c.122-.008.244-.008.367 0 .184-.13.397-.191.639-.183.13-.087.283-.117.457-.091.146-.144.328-.205.547-.183.268-.006.511-.067.731-.183a1.62 1.62 0 0 1 .731-.183l1.644-.274.304-.112.315-.083.325-.054.335-.025a4.66 4.66 0 0 0 1.278-.183 2.22 2.22 0 0 1 .913-.228c.517-.046 1.034-.061 1.553-.046l1.552-.457c.184-.13.398-.191.64-.183.274-.162.579-.254.913-.274h.091a4.83 4.83 0 0 1 1.735-.548 7.62 7.62 0 0 1 1.735-.183.42.42 0 0 1 .365-.091c.184-.13.397-.191.639-.183l2.192-.274a13.06 13.06 0 0 1 1.826-.365h.183c.184-.13.397-.191.639-.183l1.37-.32 3.288-.091c.384-.153.78-.26 1.187-.32.278-.021.521-.113.731-.274.332-.197.698-.334 1.096-.411 1.749-1.933 1.916-3.988.502-6.164a4.6 4.6 0 0 0-1.689-1.096c-.274-.162-.579-.254-.913-.274-.63-.128-1.254-.098-1.872.091a1.71 1.71 0 0 0-1.05-.137l-6.575 2.374a18.74 18.74 0 0 1-4.201.867 12.14 12.14 0 0 1-2.1.274l-2.831.137-4.018 1.004c-3.325.259-6.643.579-9.954.959a12.15 12.15 0 0 0-1.461.228c-.051.035-.081.081-.091.137-1.082.224-2.178.33-3.287.32-.132.102-.285.163-.457.183a11.25 11.25 0 0 0-1.233.137l-.593.32c-.828.338-1.681.597-2.557.776-.274-.019-.517.042-.731.183a63.19 63.19 0 0 1-1.826.502 11.07 11.07 0 0 1-2.009 0 .4.4 0 0 1-.183-.365c.544-.666 1.153-1.275 1.826-1.826a22.54 22.54 0 0 0 2.739-1.324c.243-.04.456-.131.639-.274.426-.051.822-.173 1.187-.365.13-.087.282-.117.457-.091a.65.65 0 0 0 .548-.183c.098-.085.22-.116.366-.091.312-.003.586-.094.822-.274a21.24 21.24 0 0 1 2.374-.685 2.51 2.51 0 0 1 .548-.32c.268-.006.51-.067.73-.183a5.63 5.63 0 0 1 1.278-.457.65.65 0 0 0 .548-.183 1.62 1.62 0 0 0 .73-.183h.091a1.62 1.62 0 0 0 .731-.183c.454-.21.942-.332 1.461-.365a2.03 2.03 0 0 0 1.005-.183c.561-.112 1.108-.234 1.644-.365a10.97 10.97 0 0 0 1.278-.183c.242.008.456-.053.639-.183a14.67 14.67 0 0 0 1.918-.457c.507-.118.994-.271 1.461-.457a.98.98 0 0 1 .548-.183c.252-.079.509-.15.769-.214.023-.003.047.004.067-.006h.001a1.89 1.89 0 0 0 .255-.11l.001-.001c.063-.032.119-.046.193-.075.053-.024.112-.04.171-.062a4.49 4.49 0 0 0 .919-.172c.242.008.456-.053.639-.183.293.028.567-.002.822-.091.392.028.757-.033 1.096-.183a16.95 16.95 0 0 1 4.658-.502c.919-.717 1.238-1.646.959-2.785-.357-.746-.784-1.446-1.278-2.1-.786-.753-1.73-1.118-2.831-1.096-.969.027-1.928.133-2.876.32a110.18 110.18 0 0 1-5.205 1.461l-4.657.274a44.18 44.18 0 0 0-1.735.365c-1.679.01-3.353.102-5.023.274a18.89 18.89 0 0 1-4.018.639c-.186.041-.354.117-.502.228l-.867.091a13.67 13.67 0 0 0-3.926 1.507l-2.648.228c-.276-.015-.55 0-.822.046-.051.035-.081.081-.091.137-1.085.25-2.181.448-3.288.594a6.3 6.3 0 0 1-2.009.548c-.62.369-1.259.704-1.918 1.004a9.42 9.42 0 0 0-3.561 2.009 2.67 2.67 0 0 1-.639.228.86.86 0 0 0-.639.274c-.394.06-.729.243-1.004.548-.094-.141-.216-.186-.365-.137a6.04 6.04 0 0 1-1.826 1.187c-1.245.293-2.463.659-3.653 1.096-1.346.199-2.685.427-4.018.685h-.457v-1.005a5.92 5.92 0 0 0-.183-1.735c-.234-1.604.375-2.745 1.827-3.424a65.11 65.11 0 0 1 3.516-3.79c.666-.845 1.138-1.788 1.415-2.831a22.02 22.02 0 0 0 1.644-.959c.265-.219.478-.478.639-.776.087.075.178.09.274.046.461-.492.811-1.055 1.05-1.689a9.99 9.99 0 0 0 1.735-2.283l1.689-3.744c.347-1.84-.034-3.513-1.142-5.023l-.091-.548c-.388-.449-.829-.829-1.324-1.141-.235-.142-.482-.212-.741-.209z"/></g></g><g fill="#afafaf" class="B C D"><path d="M214.331 1.812h0l-.001.001-.895.008v.272l-2.046 1.523-.159.118-.095.173c-.511.937-1.087 1.828-1.726 2.678a25.57 25.57 0 0 1-2.15 1.994c-.677.146-1.316.39-1.909.731l-.245-.061-.235.069a7.23 7.23 0 0 1-1.706.284l-.387.018-.254.293-.814 1.006-.032.042-.027.046c-.702 1.2-1.331 2.432-1.897 3.689-.311.21-.605.443-.861.717l.091-.085a11.69 11.69 0 0 1-1.696 1.144l-.111.062-.657.657-.051.077-2.013 2.913-1.64.902-.194.106-.122.184a3.58 3.58 0 0 1-.459.134l-.665-.078-.181-.008-.17.062-1.029.377-.38-.234-.938 1.57-.088.074-.079.245c-.103.317-.188.64-.254.967l-.033.163.027.164c.018.109.014.213.019.32-.671.79-1.236 1.651-1.683 2.583-.76 1.001-1.435 2.061-2.031 3.173-.558.45-.973 1.036-1.206 1.707-.206.179-.392.376-.559.591-.124.056-.246.111-.374.133l-.225.039-.18.141c-.29.228-.442.687-.425 1.031-.943.823-1.736 1.793-2.36 2.905-.729.846-1.372 1.753-1.919 2.723l-.044.078-.028.085c-.254.776-.594 1.507-1.013 2.199l-1.518 1.599c-.981.454-1.843 1.097-2.548 1.924l-.034.04-.029.044-2.037 2.821-3.872 2.726-.043.028-1.41 1.175.002-.001c-.041.029-.087.048-.122.083-.075.022-.404.573-.345.949.155.266.4.354.664.49.777.263.447.292 2.295-1.247l4.018-2.832.095-.072.073-.094 2.14-2.957c.578-.671 1.256-1.169 2.069-1.517l.195-.083.137-.161a22.36 22.36 0 0 1 1.624-1.712l.086-.081.062-.1a12.42 12.42 0 0 0 1.179-2.527 15.05 15.05 0 0 1 1.746-2.467l.064-.073.047-.085c.664-1.207 1.53-2.196 2.619-2.995l.568-.416-.114-.279.144-.079.122-.184a2.4 2.4 0 0 1 .567-.6l.253-.19.079-.307c.125-.486.358-.826.79-1.133l.176-.125.1-.191c.585-1.113 1.258-2.166 2.018-3.159l.059-.077.041-.087a10.19 10.19 0 0 1 1.679-2.518l.217-.24.016-.323a4.53 4.53 0 0 0-.033-.753l.149-.567.347-.58.894-.328.496.058.164.031.165-.03a5.93 5.93 0 0 0 1.131-.323l.261-.104.156-.234.06-.09 1.633-.898.177-.097.119-.164 2.111-3.054.372-.371a13.49 13.49 0 0 0 1.83-1.243l.049-.039.042-.045c.208-.223.443-.411.711-.569l.251-.147.118-.266a37.07 37.07 0 0 1 1.89-3.696l.491-.606a9.04 9.04 0 0 0 1.438-.249l.159.04.386.097.332-.221c.558-.371 1.164-.611 1.847-.73l.233-.04.183-.149c.879-.716 1.714-1.488 2.503-2.314l.036-.038.032-.042c.661-.875 1.253-1.797 1.788-2.757l1.79-1.333h0c.064.006.125.022.206.07.352.223.664.495.953.801l.045.267.035.213.128.174c.96 1.308 1.273 2.65.995 4.232l-1.618 3.585c-.424.759-.943 1.442-1.565 2.055l-.142.139-.07.186c-.111.294-.255.562-.422.816l-.316-.274-.536.991c-.1.185-.228.339-.389.479l-1.52.887-.35.184-.102.382c-.245.919-.653 1.736-1.235 2.481l-3.398 3.66c-.766.397-1.39.945-1.767 1.652-.41.768-.516 1.671-.378 2.614l.007.048.012.047c.124.481.176.967.155 1.472l-.001.019v1.926h1.446l.085-.016 3.979-.678.092-.014.087-.032a30.71 30.71 0 0 1 3.549-1.065l.073-.017.069-.029c.522-.219 1.007-.502 1.458-.836l.28.417.776-.859c.151-.168.27-.23.471-.261l.309-.047.205-.219.094.001.087-.019c.296-.065.583-.168.854-.305l.105-.053.088-.079c.951-.85 2.016-1.45 3.224-1.819l.057-.017.054-.025c.63-.287 1.241-.609 1.837-.957a7.21 7.21 0 0 0 1.956-.541l3.249-.59.581-.134.004-.022c.025.001.05-.006.076-.004l.062.003.061-.005 2.656-.229.197-.018.172-.098c1.131-.649 2.339-1.114 3.634-1.398l1.052-.111.198-.148c.041-.03.083-.046.136-.061 1.352-.077 2.683-.289 3.988-.637l4.886-.265h.1l.098-.023 1.65-.347 4.594-.27.085-.005.083-.021 5.185-1.455a16.49 16.49 0 0 1 2.694-.298c.867-.017 1.52.234 2.136.805a11.31 11.31 0 0 1 1.089 1.787c.159.714.036 1.139-.448 1.586a17.84 17.84 0 0 0-4.524.528l-.074.019-.07.031c-.202.089-.408.127-.668.108l-.186-.013-.176.062a.98.98 0 0 1-.436.045l-.334-.032-.274.194c-.022.016-.014.019-.087.017l-.149-.005-.143.043c-.232.07-.476.114-.735.136l-.122.011-.115.043-.025.006-.139.054c-.016.009-.015.005-.056.024l-.024.009c-.015.007-.028.009-.038.015-.046.015-.072.019-.173.07l-.026.013h-.037l-.06.03-.009.002-.824.229.234-.041c-.362.015-.738.135-1.04.353l.196-.108c-.425.169-.868.308-1.333.416l-.032.007-.031.01c-.589.183-1.188.325-1.8.428l-.204.034-.169.119c-.022.016-.014.019-.087.017l-.107-.004-.105.022a10.07 10.07 0 0 1-1.173.167l-.071.006-.069.017-1.605.357-.107.021-.099.046a1.09 1.09 0 0 1-.565.099l-.057-.004-.057.004a4.99 4.99 0 0 0-1.783.447l-.021.01-.02.01a.69.69 0 0 1-.329.079h-.295l-.197.104a.69.69 0 0 1-.33.079l-.358.008-.173.169-.054-.005-.143.032c-.516.117-1.011.294-1.483.529l-.008.004-.008.004a.69.69 0 0 1-.33.079l-.172.004-.159.067a3.39 3.39 0 0 0-.566.315 22.14 22.14 0 0 0-2.305.67l-.134.047-.113.087c-.085.065-.14.088-.281.089l.157.012c-.328-.055-.755.036-1.052.265-.324-.022-.685.05-.969.241l.081-.048a2.46 2.46 0 0 1-.873.267l-.249.03-.198.154a.45.45 0 0 1-.23.095l-.16.026-.141.081a21.63 21.63 0 0 1-2.63 1.271l-.128.052-.107.088c-.718.589-1.371 1.24-1.953 1.953l-.193.236-.011.304c-.014.408.235.908.573 1.141l.195.134.235.022a11.98 11.98 0 0 0 2.173 0l.073-.007.071-.019 1.852-.509.131-.038.113-.075c.051-.034.068-.043.173-.036l.123.008.12-.025c.93-.19 1.837-.466 2.717-.825l.044-.018.485-.261 1.006-.112.026-.002.026-.003a1.85 1.85 0 0 0 .581-.181c1.093-.005 2.175-.113 3.243-.334l.599-.124.017-.096.838-.131.009-.001.009-.001 9.922-.956.064-.005.062-.014 3.96-.989 2.736-.132a13.06 13.06 0 0 0 2.18-.282 19.65 19.65 0 0 0 4.36-.904l6.501-2.345a.76.76 0 0 1 .46.068l.314.147.332-.101a2.81 2.81 0 0 1 1.429-.07l.062.013.063.004c.204.012.359.061.508.15l.07.042.077.028a3.66 3.66 0 0 1 1.297.832c.582.927.803 1.746.741 2.517-.06.74-.394 1.486-1.061 2.277-.362.101-.713.232-1.033.422l-.047.028-.043.033c-.071.055-.126.079-.248.089l-.031.002-.031.004a6.13 6.13 0 0 0-1.209.314l-3.159.088-.077.002-.075.015-1.329.31c-.25.013-.501.068-.732.175h-.01l-.057.007a13.98 13.98 0 0 0-1.878.373l-2.094.262.1-.002a2.01 2.01 0 0 0-.942.203 1.51 1.51 0 0 0-.308.081c-.559.01-1.107.067-1.641.181-.652.08-1.276.27-1.857.557-.334.031-.655.127-.958.266a1.98 1.98 0 0 0-.789.235l-1.337.393c-.489-.009-.977.005-1.464.046-.445.019-.881.125-1.276.323l.154-.06c-.335.097-.675.146-1.032.147h-.012-.012l-.414.031-.406.068-.397.105-.266.098-1.515.252.084-.006c-.392.009-.784.103-1.131.286a.69.69 0 0 1-.33.079l.11.004c-.294-.029-.62.043-.904.186-.141.015-.283.043-.417.095-.221.021-.443.078-.647.172-.063.001-.126-.004-.188 0-.159.01-.317.03-.474.059l-.048.009-.047.014c-.077.023-.155.075-.233.117-.878.042-1.717.292-2.456.762l.066-.039c-.285.149-.588.237-.936.266l.056-.003c-.389.008-.776.104-1.123.282l-.01.004a.69.69 0 0 1-.33.079l-.031.001-.032.003c-.561.052-1.106.153-1.63.306l-.219.064-.086.085c-.319-.017-.671.055-.95.242l.156-.084c-.172.072-.356.111-.579.114l-.083.001-.082.016c-.968.193-1.918.447-2.85.76l-.142.048-.119.091c-.084.064-.14.088-.281.089h-.07l-.069.011a2.33 2.33 0 0 0-1.048.453l-.047.037-.042.043c-.027.027.04.009-.043.005l-.131-.006-.127.031a8.88 8.88 0 0 0-3.344 1.622l-2.34 1.811 4.519-.3h.012l1.706-.167 4.486-.275.095-.008.092-.028a51.37 51.37 0 0 1 5.025-1.256l.606-.12.03-.168c.146-.031.294-.052.444-.063l.028-.002.028-.004 2.449-.317.085-.01.082-.026 2.661-.754 1.985-.345a30.25 30.25 0 0 0 3.098-.094l.023-.002.023-.003c.2-.027.396-.075.584-.146.12-.045.229-.114.341-.176l1.469-.489c.456.011.905-.055 1.331-.203l2.724-.352c.274.001.557-.058.809-.183.311.003.633-.074.91-.231.715-.139 1.398-.388 2.028-.754l.054-.031.049-.038c2.163-1.689 4.574-2.81 7.272-3.382a2.62 2.62 0 0 1 .312-.028c.246-.007.482.034.719.101a5.7 5.7 0 0 1 .826 1.631c.186.816.424 1.618.711 2.404.064.379.017.689-.149 1.022l-1.641 1.877-1.789.583-.37.058-.471.116-.458.157-.442.197.035-.017c-.477.214-.967.377-1.473.491l-.117.026-.106.056c-.266.14-.551.229-.873.267l-.033.004-.032.006-2.669.552-.179.039-.149.106c-.022.015-.014.019-.087.017l-.287-.01-.24.158c-.051.034-.068.043-.172.036l-.068-.005-.068.005c-.364.03-.721.109-1.062.236l-.046.017-.044.022c-.388.194-.798.315-1.25.367l.094-.006a2.67 2.67 0 0 0-.827.138l.115-.03-3.153.541c-.302-.004-.609.037-.888.165l-.077.035-.069.049c-.022.016-.014.02-.087.017l-.175-.006-.165.06-1.429.491-.358.116-.17.336c-.014.028-.031.032-.043.05l-1.142.143-.041.003-.041.007-1.705.269-.059.008-.057.016a10.47 10.47 0 0 1-1.85.336l.042-.003c-.49.022-.968.151-1.395.383l-.047.025-.043.031c-.022.016-.013.019-.087.017l-.04-.002-.04.002c-.331.018-.652.091-.96.2a14.93 14.93 0 0 1-2.215.255h-.323l-.157.06c-.556.214-1.134.316-1.76.305l-.038-.001-.038.003-1.643.193-.023.004a6.64 6.64 0 0 0-.951.264l.016.111c-.068-.009-.138-.005-.206-.016l.051.01c-.927-.206-1.881-.083-2.716.356l-.046.024-.043.029c-.252.172-.52.27-.857.303l-.054.005-.053.012-2.596.649c-.545.147-1.111.229-1.705.243l-.084.002-.082.017a17.89 17.89 0 0 1-2.434.348l-.301.022-.052.046-.85-.142v3.431h1.266l.087-.017 1.11-.171.04-.004.039-.008a2.81 2.81 0 0 1 .676-.041l.096.004 1.685-.288.202-.198c.029-.028-.035-.011.04-.007l.311.015.254-.18c.022-.016.014-.019.087-.017l.015.001h.171l.064-.009c.379-.054.779-.082 1.196-.082h.016a8.44 8.44 0 0 1 1.857.165l.052.011.053.005 4.643.186h.084l.083-.016c.453-.086.915-.088 1.405.001l.08.015h.081c.499 0 .996-.034 1.489-.099l.064-.008.062-.018c.462-.13.945-.211 1.452-.241l.033-.002.033-.004 1.37-.183.204-.027.173-.113c.051-.034.068-.043.173-.036l-.088-.01c.27.045.609-.009.887-.156.192-.077.397-.115.644-.106l.016.001h.016c.172 0 .314.021.436.056l.139.04.145-.005c.094-.004.186.01.28.011l-.039.431 1.142-.177.744-.083-.135-.001a2.04 2.04 0 0 0 .991-.167l-.07.028c.299-.105.616-.177.952-.222.238.005.487-.044.713-.15.297-.102.61-.175.945-.218.226-.004.466-.063.675-.177a2.28 2.28 0 0 1 .715-.193l-.165.003c.23.017.465-.028.69-.103.28-.049.564-.076.855-.078.123-.001.251.014.377.022l.309.11c1.15.408 1.857 1.098 2.304 2.236.033.167.013.286-.052.41-.507.381-1.04.713-1.608.985l-.124.059-.101.093c-.052.048-.088.068-.192.08l-2.46.03h-.099l-2.503.562h-.323a2.87 2.87 0 0 0-.933.134l-.134.042-.115.081c-.022.016-.013.019-.087.017l-.072-.002-.072.009a12.94 12.94 0 0 0-2.846.687l-.078.029-.072.042c-.149.088-.304.137-.508.149l-.24.015-.201.132c-.051.034-.068.043-.172.036l-.321-.022-.263.186c-.022.016-.013.019-.087.017l-.075-.002-.074.01-4.972.542-3.347.181h.055c-.264-.006-.526.033-.782.099l-3.031.267.028-.001c-.583.014-1.151.126-1.682.338l-.1.04-.088.062c-.022.016-.013.019-.087.017l-.051-.002-.05.004c-.445.035-.887.103-1.321.203l-.026.006-.026.008c-.253.075-.526.125-.821.148h.146c-.259-.021-.521.023-.771.101a14.67 14.67 0 0 0-2.899.773c-.303.076-.596.184-.864.335l.021-.011c-.266.14-.551.229-.873.267l-.102.012-.097.035-4.304 1.739c-.803.285-1.608.515-2.415.69-.708.131-1.424.213-2.15.251a1.01 1.01 0 0 1-.169-.038l-.38-.128-.35.196a2.83 2.83 0 0 0-.475.341h-.376l-.06.008a9.54 9.54 0 0 1-1.085.083l-.399.008-.263.3c-.016.018-.026.042-.041.062a10.28 10.28 0 0 0-1.237.096l-.214.031-.176.125c-.024.017-.014.02-.088.018l-.017-.001h-.017c-.515.002-1.026.139-1.466.403l-.024.015-.023.016c-.086.059-.108.063-.146.055-.156-.065-.32-.114-.482-.122l-.305-.016-.252.172c-.107.073-.205.109-.363.118l-.132.007-.124.045-3.087 1.232-2.321.086-.192.011-.154.08-.083-.006-.094.013c-.36.048-.721.076-1.085.083l-.277.006-.226.16c-.024.017-.015.02-.088.018l-.07-.002-.07.008-3.572.458-.104.014-.098.037c-.252.096-.515.139-.822.124l-.27-.013-.233.138a1.07 1.07 0 0 1-.508.15l-.256.016-.21.148c-.024.017-.014.02-.088.018l-.077-.003-.076.01a7.64 7.64 0 0 0-1.657.415l-.037.014-.036.017a8.36 8.36 0 0 1-1.979.66l-.602.121-.037.206c-.262.091-.527.168-.8.216l-.057.01-.055.017c-.868.27-1.642.74-2.289 1.375l-4.913 3.275-.027.021a10.92 10.92 0 0 0-1.13 1.03c-.941.321-1.858.703-2.744 1.161h-.001c-1.146.589-2.245 1.249-3.297 1.979l-.031.022-.03.024a48.38 48.38 0 0 0-4.791 4.556 3.6 3.6 0 0 1-.791.538l-.195.098-.129.176c-.765 1.046-1.684 1.909-2.771 2.603l-.077.049-.065.064c-1.827 1.768-3.757 3.402-5.791 4.904a10.49 10.49 0 0 0-1.582.891l-.011.007-.019.014-.006.005-.003.002-.001.001-3.006 2.078a27.6 27.6 0 0 0-3.701 2.251l-.098.086c-1.121.565-1.5 1.77-1.894 2.765.353.16.808.208 1.142.056l.115-.053.097-.082c1.592-1.356 3.326-2.502 5.206-3.441l.037-.018.035-.022 3.119-2.154.013-.009a8.68 8.68 0 0 1 1.406-.786l.09-.04.079-.058a58.83 58.83 0 0 0 5.976-5.052 12.03 12.03 0 0 0 3.039-2.837 5.42 5.42 0 0 0 1.007-.706l.032-.029.029-.032c1.446-1.58 2.988-3.048 4.625-4.406a27.32 27.32 0 0 1 3.066-1.838h.001l.001-.001a18.24 18.24 0 0 1 2.698-1.131l.223-.073.159-.172a9.12 9.12 0 0 1 1.063-.983l4.972-3.315.067-.069a3.77 3.77 0 0 1 1.625-.999c.502-.096.992-.242 1.465-.446l.081-.035.073-.05c.028-.019.049-.056.076-.08.723-.169 1.423-.399 2.085-.717l-.073.031a5.82 5.82 0 0 1 1.261-.315c.29-.012.581-.087.842-.224a2.92 2.92 0 0 0 .796-.239 3.8 3.8 0 0 0 1.119-.179l3.537-.453-.14.006c.317.011.647-.059.94-.202l1.038-.08-.187.006c.221.017.445-.026.662-.094l2.34-.086.183-.002.168-.074 3.123-1.249c.211-.032.419-.075.615-.158a2.1 2.1 0 0 0 1.617-.32l-.047.031c.163-.098.322-.144.543-.145l-.034-.001c.319.011.652-.06.947-.206a8.5 8.5 0 0 1 1.422-.068l1.11.043-.08-.476.298-.023h1.093l.271-.324c.024-.029.054-.041.079-.066.029.004.057.016.086.019l.071.008.072-.003a18.49 18.49 0 0 0 2.496-.288l.013-.002.013-.003c.896-.193 1.785-.448 2.669-.762l.034-.012.033-.015 4.198-1.698c.467-.074.918-.209 1.332-.428l.011-.005.011-.006a1.69 1.69 0 0 1 .48-.179l.066-.014.063-.024a12.85 12.85 0 0 1 2.56-.683l.118-.019.109-.049c.036-.016.052-.02.105-.016l.073.006.073-.006c.41-.033.807-.104 1.188-.217l-.052.014a7.13 7.13 0 0 1 1.054-.162l-.101.002a2 2 0 0 0 1.029-.254 3 3 0 0 1 1.032-.203h.014l.014-.001 3.165-.279.084-.01.08-.026a1.04 1.04 0 0 1 .346-.049l.027.001.027-.001 3.406-.184.016-.002 5.055-.552c.263-.01.531-.067.774-.181.274-.021.545-.098.791-.223.375-.055.742-.161 1.067-.354l-.149.071a11.12 11.12 0 0 1 2.449-.591 1.99 1.99 0 0 0 .849-.225 1.03 1.03 0 0 1 .298-.042h1.38v-.183l1.694-.38 2.459-.031.029-.001.029-.003c.403-.041.8-.202 1.123-.455a11.35 11.35 0 0 0 1.989-1.238l.113-.088.08-.119c.388-.574.518-1.314.359-1.991l-.013-.057-.021-.055a5.58 5.58 0 0 0-3.221-3.281c-.133-.107-.281-.19-.422-.233l-.075-.023-.078-.009a7.36 7.36 0 0 0-.925-.053c-.394.003-.783.038-1.168.106l-.136.024-.106.055-.072-.005-.082.009a4.12 4.12 0 0 0-1.285.352l-.009.004-.088.011a6.57 6.57 0 0 0-1.376.318l-.108.038-.038-.006-.121.015c-.476.058-.936.164-1.376.318l-.036.013-.034.016c-.035.016-.052.02-.105.016l-.068-.006-.068.005-.313.035-.151-.135-.285-.033c-.401-.046-.804-.061-1.208-.051-.243-.055-.492-.089-.746-.091-.489-.016-.974.065-1.42.251l-.059.025c-.328-.006-.662.064-.961.208l-1.216.162.066-.006a8.66 8.66 0 0 0-1.723.281 9.47 9.47 0 0 1-1.199.08 5.61 5.61 0 0 0-1.822.002 52.01 52.01 0 0 1-4.437-.179c-.416-.08-.84-.128-1.269-.156l.29-.073-.107.017c.613-.06 1.198-.267 1.7-.61l-.09.054c.485-.255.932-.315 1.484-.192l.025.006.025.004c.443.072.889.106 1.339.103h.226l.05-.005a1.06 1.06 0 0 0 .598-.285.98.98 0 0 0 .18-.253l.827-.097-.077.002a6.46 6.46 0 0 0 2.257-.365h.06l.018-.001c.855-.035 1.692-.131 2.51-.29l.091-.018.085-.036a1.55 1.55 0 0 1 .523-.114l-.08.001a1.98 1.98 0 0 0 1.192-.348l-.09.056a1.36 1.36 0 0 1 .614-.165l.021-.001.021-.002c.715-.066 1.41-.193 2.085-.375l1.72-.272 1.469-.184.172-.029.149-.091c.214-.131.391-.312.546-.511l1.079-.371c.291-.021.581-.107.837-.255.035-.016.063-.026.155-.015l.12.014.119-.018 3.235-.554.059-.011.057-.019a.84.84 0 0 1 .269-.045h.047l.047-.005c.652-.074 1.277-.257 1.856-.546l-.09.039c.188-.07.379-.112.581-.129l-.136.001c.349.024.713-.044 1.036-.193.246-.026.489-.099.711-.216l2.504-.518-.065.01c.473-.057.926-.198 1.35-.401a9.58 9.58 0 0 0 1.743-.585l.018-.008.017-.009.295-.132.305-.105.318-.079.332-.052.083-.009.08-.024 2.131-.695.248-.086.163-.206 1.818-2.084.083-.086.057-.105a3.52 3.52 0 0 0 .369-2.333l-.014-.076-.027-.072c-.285-.768-.517-1.551-.696-2.349l-.008-.038-.012-.037c-.212-.667-.509-1.294-.888-1.873a4.31 4.31 0 0 1 .66-.157l-.062.007a2.29 2.29 0 0 0 1.213-.46l-.09.062c.24-.143.503-.243.805-.301l.296-.057.203-.224c.972-1.074 1.565-2.265 1.667-3.523s-.291-2.528-1.077-3.738l-.05-.077-.065-.066a5.53 5.53 0 0 0-1.928-1.262c.018.01.039.014.057.025l-.147-.07c.03.011.056.031.085.043-.366-.205-.775-.326-1.195-.361.021.004.042.001.063.006l-.125-.016c.02.001.038.008.058.01a4.69 4.69 0 0 0-1.928.042 2.67 2.67 0 0 0-1.266-.086l-.09.016-.085.034-6.519 2.354h-.002-.002a17.83 17.83 0 0 1-3.999.826l-.058.005-.057.013c-.626.139-1.274.224-1.944.253h-.006-.006l-2.813.136-.106.004-.102.028-3.919.981-9.895.953c-.529.05-1.052.132-1.569.245l-.171.038-.145.099c-.014.009-.024.029-.038.04a14.53 14.53 0 0 1-2.822.259l-.312-.003-.248.191.045-.004a12.14 12.14 0 0 0-1.332.148l-.147.025-.67.361a13.48 13.48 0 0 1-2.309.702c-.32.007-.642.085-.928.234l-1.649.454-.324.015.6-.543a23.44 23.44 0 0 0 2.611-1.265 2.31 2.31 0 0 0 .589-.248c.445-.075.875-.204 1.272-.411.34.025.719-.075 1.021-.273a2.31 2.31 0 0 0 1.144-.345c.719-.25 1.451-.462 2.199-.632l.192-.044.156-.119a1.58 1.58 0 0 1 .292-.171c.299-.038.593-.11.859-.25l-.017.009c.328-.164.668-.285 1.026-.37.254-.016.515-.088.741-.218a2.53 2.53 0 0 0 .554-.147c.374-.016.745-.105 1.075-.279l-.041.02c.351-.162.724-.257 1.139-.283h-.114c.45.028.9-.047 1.314-.215l1.57-.349 1.196-.171c.295-.009.593-.083.859-.223a15.57 15.57 0 0 0 1.869-.451 11.15 11.15 0 0 0 1.527-.48l.104-.042.091-.066c.01-.007-.001-.009.056-.012l.119-.005.114-.036.521-.145c.013.014.114.003.289-.064l.066-.024c.025-.009.065-.03.093-.04l.265-.115-.004.003c-.006.003.024-.009.022-.007l.048-.01.036-.017c.033-.013.045-.016.066-.028-.001.001.031-.011.039-.013-.008.004-.025.008-.035.012a5.38 5.38 0 0 0 .835-.158c.256-.013.515-.07.751-.181.221-.003.438-.031.651-.086a3.21 3.21 0 0 0 1.262-.214c1.434-.358 2.894-.516 4.389-.471l.326.01.257-.201a3.57 3.57 0 0 0 1.28-3.712l-.022-.091-.04-.084c-.383-.8-.841-1.553-1.373-2.255l-.044-.058-.052-.05c-.941-.901-2.163-1.373-3.474-1.346h-.006c-1.019.028-2.028.14-3.026.336l-.046.009-.045.014-5.084 1.428-4.564.269-.059.003-.058.011-1.674.352-5.008.276-.073.008-.071.019a17.98 17.98 0 0 1-3.827.609l-.076.004-.075.017c-.204.045-.398.13-.583.231l-.734.077-.048.01c-1.411.307-2.743.813-3.991 1.505l-2.448.211c-.306-.01-.613.006-.915.057l-.196.033-.165.113c-.02.014-.036.042-.055.058l-2.931.522-.135.018-.124.057a5.38 5.38 0 0 1-1.723.47l-.199.02-.172.102c-.588.35-1.194.667-1.818.953-1.354.428-2.58 1.118-3.659 2.05a1.76 1.76 0 0 1-.372.133l.176-.021c-.36.007-.737.135-1.041.353-.262.072-.51.185-.738.335-.18-.014-.356-.004-.498.042l-.19.063-.146.137c-.451.425-.955.752-1.524.995-1.209.289-2.394.645-3.554 1.067l-3.353.572h0c.024-.668-.045-1.33-.211-1.974l.019.095c-.096-.661-.015-1.13.184-1.504s.538-.695 1.132-.973l.176-.083.127-.148 3.467-3.737.038-.038.034-.042a8.66 8.66 0 0 0 1.459-2.785l1.379-.805.045-.029.042-.034c.201-.166.376-.358.535-.562.064-.014.131-.021.186-.047l.157-.074.119-.126c.494-.527.878-1.135 1.155-1.801a10.9 10.9 0 0 0 1.761-2.351l.018-.032.015-.034 1.69-3.745.068-.151.009-.149c.343-1.941-.069-3.812-1.183-5.428l-.06-.361-.042-.25-.166-.192a6.81 6.81 0 0 0-1.526-1.315l-.016-.009c-.363-.219-.789-.343-1.216-.339zm47.2 34.328l-.077.013c.025-.006.052-.007.077-.013zM213.735 2.413l.597 1.178h-.001l-.597-1.178zm-24.524 19.942zm65.883 3.815c.007-.004-.014.011-.028.021l-.014.003c.011-.007.039-.022.043-.024zm-20.382 3.847l.043.005c-.016-.002-.033-.001-.049-.003zm1.091 1.36l-.039.037c-.005.005-.016.006-.022.01.019-.017.043-.029.062-.047zm29.659 6a19.79 19.79 0 0 0-1.915 1.308c-.495.284-1.017.471-1.586.564l-.251.041-.156.134-.033-.004h-.571l-.218.187-.104-.013-.124.019-2.78.359-.123.013-.115.045a1.94 1.94 0 0 1-.881.123l-.172-.013-.165.051-1.677.559-.109.039-.096.065a.71.71 0 0 1-.153.079c-.052.019-.111.034-.178.044a28.36 28.36 0 0 1-2.976.087l-.086-.002-.085.014-2.112.367-.029.005-.029.007-2.711.767-2.401.311.056-.006c-.451.034-.895.127-1.324.276l-.114.04-.1.068c-.022.015-.04.046-.062.064l-4.787 1.202-2.391.169c.125-.049.243-.109.357-.179.833-.276 1.682-.503 2.547-.676h0c.374-.022.741-.092 1.083-.234l.066-.027c.323.022.68-.064.972-.244a6.88 6.88 0 0 1 1.164-.211l-.063.003a2.56 2.56 0 0 0 1.131-.286l-.009.005a.73.73 0 0 1 .338-.084l.028-.001.028-.002a4.26 4.26 0 0 0 1.621-.465l.034-.018.032-.021c.545-.347 1.113-.507 1.786-.498l.528.007.111-.191a1.97 1.97 0 0 1 .231 0l.318.02.26-.184c.022-.016.013-.019.087-.017l.291.01.146-.098.362.054.243-.239h.012c.393-.009.784-.104 1.131-.286a.69.69 0 0 1 .33-.079l.042-.001.042-.005 1.734-.289.081-.018.077-.032.223-.082.233-.061.243-.04.256-.019h-.024c.519-.002 1.03-.075 1.525-.218l.08-.023.074-.037c.157-.079.329-.125.546-.133h.021l.021-.002c.482-.043.963-.057 1.447-.043l.131.004.127-.034 1.598-.47.132-.043.113-.08c.021-.015.014-.019.087-.017l.264.009.227-.135a1.07 1.07 0 0 1 .497-.148h.276l.201-.109c.436-.236.901-.384 1.414-.446l.045-.005.045-.01a6.71 6.71 0 0 1 1.53-.161l.342.002.083-.072.165.028.304-.215c.022-.016.014-.019.087-.017l.05.002.05-.004 1.003-.101zm-26.367 4.056l.043.005c-.016-.002-.033-.001-.049-.003zM158.554 97.29l-.008.006z"/><path d="M206.572 10.724c.106.156.045.216-.183.183a14.24 14.24 0 0 1 1.735.548c.517.295 1.065.417 1.644.365-.054-.119-.145-.195-.274-.228-.436-.032-.862-.108-1.278-.228l-1.644-.639zm-1.01 6.945a.48.48 0 0 0-.071.005l-.457.411c.276-.027.519-.148.73-.365a.45.45 0 0 0-.203-.05zm-8.574 1.922a2.24 2.24 0 0 1-.274.548c.752-.169 1.513-.214 2.283-.137.878.165 1.7.393 2.465.685-.101-.127-.223-.234-.365-.32-1.352-.475-2.721-.734-4.109-.776zm-.173.822c-.054.019-.099.05-.137.091-.061.244-.061.487 0 .73.951 1.064 2.123 1.399 3.516 1.004a1.56 1.56 0 0 0 1.278-.822l-.091-.091c-.256.356-.591.599-1.004.73-.854.131-1.706.116-2.557-.046-.716-.29-1.051-.823-1.004-1.598zm-6.585 4.83l1.826.685 5.388.868a13.79 13.79 0 0 1 1.187.776 12.71 12.71 0 0 0 1.735 1.415l2.283 1.461a2.48 2.48 0 0 1-.913.274c.001.139.062.245.183.32.395.046.79.061 1.187.046a.42.42 0 0 0-.091-.365c.009-.187-.052-.34-.183-.457-.705-.596-1.496-1.053-2.374-1.37l-2.191-1.781c-.19-.156-.403-.262-.639-.32-.294-.215-.629-.352-1.005-.411l-4.018-.548a4.63 4.63 0 0 0-.457-.594c-.031.077-.092.107-.183.091.061.07.137.131.228.183.068.104.053.195-.046.274a8.01 8.01 0 0 0-1.278-.457 4.71 4.71 0 0 0-.639-.091zm12.795 7.671c-.13.13-.282.221-.457.274l-1.918.183a12.47 12.47 0 0 0-1.826.228c-.081.065-.141.141-.183.228-.316.09-.651.12-1.004.091.287.075.591.121.913.137.135.227.333.334.594.32.975-.22 1.934-.509 2.876-.867.394-.143.79-.159 1.187-.046l-.183-.548zm-8.342.461l-.333.005c.355.162.751.238 1.187.228a3.95 3.95 0 0 0 1.461-.046 13.93 13.93 0 0 0-2.315-.187zm75.895 5.027c-.429.088-.84.225-1.233.411l-2.374.091c-.102.023-.194.068-.274.137l3.47.183 3.653.274a2.07 2.07 0 0 0-.365-.731v.274c-.276.015-.55 0-.822-.046-.676-.234-1.361-.432-2.055-.594zm-82.253.269c-.031 0-.062.002-.093.005l-1.461.913a8.25 8.25 0 0 0 1.826-.867.77.77 0 0 0-.272-.051zm22.645.096l-2.557 2.511-5.753 4.475c-.475.505-.977.977-1.507 1.415-.343.526-.754.998-1.233 1.415l-2.1 1.918-1.552 1.004a4.99 4.99 0 0 0-1.278.411l-1.415.365c-.094-.031-.14-.092-.137-.183.673-.489 1.403-.884 2.192-1.187.122-.061.122-.122 0-.183a11.1 11.1 0 0 0-2.374 1.278 10.89 10.89 0 0 1-1.644.913c-.237.079-.481.14-.731.183l-1.187-.274c-.73-.314-1.492-.558-2.283-.731a11.53 11.53 0 0 1-1.735-.868l-1.735-.457-3.561-2.374a10.13 10.13 0 0 1-1.187-.457 2.83 2.83 0 0 1-.822-.502c-.115.161-.084.298.091.411l2.283 1.096 3.653 2.283 1.552.365c.619.37 1.258.69 1.918.959.522.235 1.07.418 1.644.548.365.193.761.314 1.187.365a32.85 32.85 0 0 0 4.566-1.37 2.78 2.78 0 0 1 1.004-.32c.351-.358.777-.571 1.278-.639.647-.647 1.347-1.226 2.1-1.735l4.292-4.475a44.77 44.77 0 0 0 7.077-5.89c.068-.104.053-.195-.046-.274zm57.17 1.109a.28.28 0 0 0 .091.274 3.69 3.69 0 0 1 1.096.822c.134.107.287.199.457.274.273.547.669.973 1.187 1.278a.63.63 0 0 0 .091.457c-.015-.185 0-.368.046-.548a2.57 2.57 0 0 0 .594 1.05 1.18 1.18 0 0 0 .457.046c-.164-.08-.301-.202-.411-.365-.136-.624-.395-1.187-.776-1.689a5.44 5.44 0 0 0-1.644-.913 1.66 1.66 0 0 0-1.187-.685zm-56.622 1.996l-1.826 1.507a26.41 26.41 0 0 1-3.196 1.644c-.288.134-.593.225-.913.274-.169.154-.321.321-.457.502-.574.222-1.091.542-1.552.959a9.11 9.11 0 0 0-2.465 1.507c-.116.079-.101.139.046.183l2.603-1.598.913-.73c.36.006.634-.146.822-.457.618-.126 1.166-.401 1.644-.822 1.088-.358 2.092-.875 3.013-1.552a3.03 3.03 0 0 0 1.826-1.415zm10.551.425c-.055.002-.117.012-.186.032a10.01 10.01 0 0 0-.365 1.278c-.093.078-.17.169-.228.274.095.207.111.42.046.639l-.959 2.648-1.233 3.196c-.301 1.019-.377 2.054-.228 3.105a11.87 11.87 0 0 0 .137-1.461l.365-1.735c.361-.803.68-1.625.959-2.466.669-1.644 1.248-3.318 1.735-5.023h.274c.027-.333-.079-.496-.316-.489zm-6.441 1.219a12.72 12.72 0 0 0-.091 2.1h.274c.058-.737-.003-1.437-.183-2.1zm-2.876.457l-.685.502-5.662 2.557-.365.457c-1.037.305-2.011.762-2.922 1.37a6.01 6.01 0 0 0-1.918 1.096c-.267.09-.541.151-.822.183a6.73 6.73 0 0 1-2.1.959l-2.922 1.415-4.109 2.055a15.26 15.26 0 0 0-1.826.457c-.362-.145-.515-.419-.457-.822h-.274a1.69 1.69 0 0 0 .046.548 1.73 1.73 0 0 1 .274.457c.075.121.181.182.32.183a.72.72 0 0 1 .548-.137.66.66 0 0 1 .183.228.65.65 0 0 1-.457.091v.274c.118-.022.209.009.274.091a23.15 23.15 0 0 0 3.835 2.055 5.77 5.77 0 0 0 3.105.32l-1.918-.228-.776-.411c-1.342-.386-2.605-.95-3.79-1.689a.66.66 0 0 1-.183-.228c.848-.352 1.731-.504 2.648-.457v-.274c-.371.001-.736-.044-1.096-.137-.042-.038-.072-.084-.091-.137.355-.086.69-.223 1.004-.411.505-.34 1.053-.599 1.644-.776a7.26 7.26 0 0 1 2.922-1.415 12.89 12.89 0 0 1 2.192-1.233 42.61 42.61 0 0 0 4.931-2.511 4.19 4.19 0 0 1 1.735-.639l5.753-2.922a7.21 7.21 0 0 1 .913-.183c.331-.233.346-.461.046-.685zm3.333 2.739v2.009h.274v-2.009zm20.821 3.196a31.45 31.45 0 0 1-4.657.183c-.236-.112-.185-.16-.457-.137a10.12 10.12 0 0 0-1.37.137 5.06 5.06 0 0 1-1.826.183v.274a5.96 5.96 0 0 1 1.141.091l.868-.32c.211-.045.424-.06.639-.046 1.913.103 3.831.103 5.753 0 .708.17 1.438.262 2.192.274h.365c.497.126 1.015.187 1.552.183v-.274h-.822c-.28-.034-.554-.095-.822-.183-.441-.082-.898-.143-1.37-.183a7.08 7.08 0 0 0-1.187-.183zm-35.042 3.677a8.89 8.89 0 0 0-2.946.523 11.42 11.42 0 0 0-3.288.457l.365.091 3.014-.365a.42.42 0 0 1 .365-.091 7.61 7.61 0 0 1 3.014-.411c.213.123.426.138.639.046a4.39 4.39 0 0 0-.457-.228l-.706-.021zm1.986.225a2.14 2.14 0 0 0-.276.024c.513.19 1 .449 1.461.776a1.65 1.65 0 0 1 .183.32c-.283.541-.678.983-1.187 1.324l-1.735.959c-.319.129-.654.19-1.004.183a18.31 18.31 0 0 1-1.826-.046l-6.21-1.963-.183.091 6.666 2.1c.074.136.196.197.365.183l1.735-.228c.215-.022.397-.098.548-.228a5.96 5.96 0 0 0 2.785-1.918.71.71 0 0 0 .183-.731l-.685-.685c-.272-.112-.545-.166-.82-.161zm-9.493.992a3.54 3.54 0 0 0-.206.006 2.56 2.56 0 0 1-1.187.183v.274c.687-.04 1.357-.177 2.009-.411a3.74 3.74 0 0 0-.615-.051zm4.835 3.044c-.061 0-.122.002-.184.006l-1.644.365c.106.244.133.225.205.227l.161-.044a7.03 7.03 0 0 0 2.009-.502 2.97 2.97 0 0 0-.547-.051zm-12.512 1.741c.015.245 0 .489-.046.731a3 3 0 0 0-.502 2.283c.135-.351.212-.716.228-1.096a4.28 4.28 0 0 0 .502-1.781c-.031-.094-.092-.14-.183-.137zm.829 2.049c-.041-.003-.089.045-.144.142a4.25 4.25 0 0 0-.137 2.192v.091a4.13 4.13 0 0 0 .274 1.278 1.73 1.73 0 0 0-.091-1.096v-.639c-.048-.639.013-1.263.183-1.872-.024-.062-.052-.095-.084-.097zm-1.468 1.421c-.054.019-.099.049-.137.091l-.046 2.74c-.12.503-.12 1.021 0 1.552.085-.109.115-.23.091-.365l.091-.822c.121-1.051.121-2.116 0-3.196zm1.461 2.466c-.011.282.08.525.274.731l.091-.091c-.07-.164-.131-.331-.183-.502-.031-.094-.091-.14-.183-.137zm-9.78.274l.913 1.278c-.02-.107.01-.199.091-.274.196.149.303.119.32-.091l-1.324-.913zm-.722 1.735a.77.77 0 0 0 .046.365c.243.127.472.279.685.457l1.415 2.465c1.041 1.224 2.015 2.503 2.922 3.836.514.612 1.169.917 1.963.913v-.274c-.248-.016-.492-.062-.731-.137a8.16 8.16 0 0 1-1.278-1.233c.151-.059.272-.151.365-.274l-.731-.183c-.727-1.015-1.533-1.959-2.42-2.831-.326-.857-.722-1.679-1.187-2.466-.291-.32-.641-.533-1.05-.639zm8.767 3.561c-.019.468.042.925.183 1.37a2.18 2.18 0 0 0-.183-1.37zm-11.232 1.735c-.014.096.001.187.046.274l2.1 3.561c.609.838 1.325 1.568 2.146 2.192l.091-.091a9.34 9.34 0 0 1-1.415-1.278l-2.968-4.657zm-16.884 23.188c-.222.268-.466.527-.731.776l-3.561 1.918a33.86 33.86 0 0 0-4.292 3.516.43.43 0 0 0 .457.046 26.66 26.66 0 0 1 5.388-3.561l3.105-2.146h-.274l-.091-.548z"/></g><path d="M214.338 2.716a1.49 1.49 0 0 0-.263.026l-2.146 1.598a22.92 22.92 0 0 1-1.826 2.831c-.763.799-1.57 1.545-2.42 2.237-.8.139-1.531.429-2.192.868l-.365-.091c-.626.183-1.266.29-1.918.32l-.776.959a37.98 37.98 0 0 0-1.963 3.836 4.05 4.05 0 0 0-.913.73c-.57.462-1.179.873-1.826 1.233l-.502.502-2.146 3.105-1.826 1.004-.183.274a5.02 5.02 0 0 1-.959.274c-.257-.048-.516-.079-.776-.091l-1.37.502c-.118.118-.118.224 0 .32a3.81 3.81 0 0 1 .822-.091v.548a3.88 3.88 0 0 0 .502 1.004 7.67 7.67 0 0 1 .685.73c.091.016.151-.015.183-.091l-.731-1.004c-.175-.337-.22-.703-.137-1.096a2.02 2.02 0 0 1 .867-.183 8.12 8.12 0 0 0 2.374-.913.53.53 0 0 0 .365-.183 3.26 3.26 0 0 0 .822-.502l1.004-1.233c.119-.175.21-.357.274-.548.356-.769.874-1.423 1.552-1.963a10.13 10.13 0 0 0 3.47-3.15c.07.103.131.209.183.32.061.061.122.061.183 0l1.004-1.461 1.004-.457c-.81-.022-1.388.328-1.735 1.05-.099-.011-.16-.072-.183-.183a5.49 5.49 0 0 0 .274-1.096 3.11 3.11 0 0 1 .137-.731l.867-.959 1.096-.137a7.55 7.55 0 0 1 1.278.091h.274c.228.034.289-.027.183-.183a.55.55 0 0 1-.183-.457h.457v.274a2.78 2.78 0 0 0 1.461-1.05c.369-.082.704-.234 1.004-.457a14.89 14.89 0 0 1 1.872-2.055l1.278-2.374a18.59 18.59 0 0 0 1.689-1.324c.457.022.868.189 1.233.502a23.92 23.92 0 0 0 1.324 2.466c.152.177.213.39.183.639a13.42 13.42 0 0 1 .091 2.1 20.47 20.47 0 0 1-.776 2.557c-.505.888-.961 1.801-1.37 2.739a5.01 5.01 0 0 0-1.552 2.009c-.741.406-1.335.97-1.781 1.689-.291.12-.595.166-.913.137a5.23 5.23 0 0 0 .639-1.233 5.45 5.45 0 0 0-1.096-.959c-.329-.283-.649-.588-.959-.913a1.58 1.58 0 0 0-.959-.913c-.389-.362-.846-.606-1.37-.731-.184-.13-.397-.191-.639-.183-.403-.094-.798-.216-1.187-.365l-.183.091a7.38 7.38 0 0 0 1.187.548l.639.228c.114.136.114.273 0 .411-.158-.158-.34-.279-.548-.365-.073.042-.103.103-.091.183.143.132.264.284.365.457a1.24 1.24 0 0 1 .183.548 4.02 4.02 0 0 1-3.881.091c-.147.043-.162.104-.046.183 1.273.705 2.552.721 3.836.046.536-.415.749-.948.639-1.598.261.206.535.389.822.548.223.158.466.295.731.411a4.35 4.35 0 0 0 1.37 1.415l.822 1.096a3.5 3.5 0 0 1-.457.502c-.2.037-.383-.008-.548-.137l-1.324-1.278a2.19 2.19 0 0 0-.959-1.004c.026-.163-.004-.315-.091-.457-.232.199-.232.382 0 .548l2.283 2.374c.088.134.194.255.32.365l-.091 1.918a11.17 11.17 0 0 1-.639 1.187l-4.064 4.155a2.76 2.76 0 0 0-1.781 1.689l-.183 4.84-.228.228a9.12 9.12 0 0 1-2.648.411c-.3-.007-.574.053-.822.183a1.89 1.89 0 0 1-.457.091c-.245-.015-.489 0-.731.046-.051.035-.081.081-.091.137-.325.051-.538.233-.639.548-.087.13-.117.282-.091.457.353.029.688-.002 1.004-.091.041-.088.102-.164.183-.228.604-.121 1.212-.197 1.826-.228l1.918-.183c.175-.052.327-.144.457-.274.01-.056.041-.102.091-.137l3.379-.411a2.9 2.9 0 0 0 1.187-.183 2.93 2.93 0 0 1 .913-.228l1.096-.594c.295-.016.569-.077.822-.183a5.84 5.84 0 0 1 1.552-.411c-.281.156-.388.384-.32.685a26 26 0 0 1 2.602 5.205c-.008.242.053.455.183.639v.091l.183 1.644a5.43 5.43 0 0 0 1.37.913c.404.186.83.338 1.278.457.237-.052.328-.205.274-.457.072-.134.072-.256 0-.365l-.457.365c-1.183-.301-1.944-1.031-2.283-2.192.007-.3-.054-.573-.183-.822l-.867-2.374-1.096-2.192a3.74 3.74 0 0 0-.457-.639c-.061-.122-.061-.244 0-.365 1.163-.798 2.274-1.665 3.333-2.603.33-.086.665-.147 1.005-.183 1.643-1.195 3.439-2.077 5.388-2.648.3-.085.574-.04.822.137l.183-.411c.509-.211 1.026-.378 1.552-.502a.65.65 0 0 0 .548-.183c.479-.15.965-.272 1.461-.365l2.831-.457 1.644-.411a37.8 37.8 0 0 1 3.927-1.324c.416-.011.811-.072 1.187-.183l1.187-.091c.295-.016.569-.077.822-.183l2.283-.457 2.283-.183a15.35 15.35 0 0 0 4.109-.365l1.918-.183 3.653-.228c.39-.115.785-.206 1.187-.274 2.379-.931 4.844-1.296 7.397-1.096a3.17 3.17 0 0 1 1.278.639c.295.387.553.798.776 1.233.422.938.254 1.745-.502 2.42l-4.931.73-1.644.091a1.65 1.65 0 0 0-.527.098l-.282.031c-.106.017-.221.013-.336.049-.015.007-.038.013-.065.018l-.082.02c-.008.003-.013.015-.022.019-.42.282-.861.51-1.334.678a28.63 28.63 0 0 0-3.47 1.096 4.31 4.31 0 0 1-1.096.137c-.479-.018-.936.043-1.37.183l-2.831.502c-1.274.491-2.583.857-3.927 1.096l-8.767 2.831a3.87 3.87 0 0 1-1.05.502l-.594.183-3.288 2.557a.56.56 0 0 0-.091.32c-.017.183.043.32.183.411l.639.731c.078.134.199.21.365.228.626.075 1.234.06 1.826-.046h.091c.274.019.517-.042.731-.183a.42.42 0 0 1 .365-.091l1.735-.457 1.37-.365c.307-.017.581-.109.822-.274h.091c.404-.033.769-.155 1.096-.365a27.95 27.95 0 0 1 3.562-.502 18.25 18.25 0 0 1 2.374-.502c.599.015 1.177-.046 1.735-.183.989-.106 1.994-.121 3.014-.046a1.17 1.17 0 0 1-.731.457l-2.374.32c.005.191.097.328.274.411a3.7 3.7 0 0 0 1.096.594c.274.162.579.254.913.274.016-.091-.014-.151-.091-.183l-1.461-.731.822-.183a7.95 7.95 0 0 1 2.74-.228c.983.552 1.456 1.389 1.415 2.511l-1.781 1.781c-.113.072-.236.118-.365.137-.46.445-.871.932-1.233 1.461l-.776.594a13.63 13.63 0 0 1-1.689.411l-1.324.594a14.16 14.16 0 0 0-3.105.594c-.242-.008-.456.053-.639.183-.206.066-.42.096-.639.091-.242-.008-.456.052-.639.183l-2.009.548a.81.81 0 0 0-.548.274l-3.653 1.324c-.815.254-1.454.726-1.918 1.415a1.26 1.26 0 0 0-.183.365c.144.074.235.013.274-.183 1.002-.896 2.158-1.505 3.47-1.826.294.014.537-.077.731-.274.184-.143.396-.234.639-.274.312-.003.586-.094.822-.274.896-.301 1.809-.544 2.74-.731.327-.004.631-.065.913-.183.13-.087.282-.117.457-.091a.65.65 0 0 0 .548-.183 7.77 7.77 0 0 1 1.461-.274c.268-.006.51-.067.731-.183a1.66 1.66 0 0 1 .731-.183 3.33 3.33 0 0 0 1.278-.365 4.06 4.06 0 0 1 2.283-.639c.019-.033.044-.061.074-.084s.066-.041.108-.053a2.98 2.98 0 0 1 .364-.046c.122-.008.244-.008.367 0 .184-.13.397-.191.639-.183.13-.087.282-.117.457-.091a.65.65 0 0 1 .548-.183c.268-.006.511-.067.731-.183a1.62 1.62 0 0 1 .731-.183l1.644-.274.304-.112.314-.083.325-.054.335-.025a4.66 4.66 0 0 0 1.278-.183 2.22 2.22 0 0 1 .913-.228 13.23 13.23 0 0 1 1.552-.046l1.552-.457c.184-.13.397-.191.639-.183.274-.162.579-.254.913-.274h.091a4.83 4.83 0 0 1 1.735-.548c.559-.126 1.137-.187 1.735-.183a.42.42 0 0 1 .365-.091c.184-.13.397-.191.639-.183l2.192-.274a13.06 13.06 0 0 1 1.826-.365h.183c.184-.13.397-.191.639-.183l1.37-.32 3.287-.091c.384-.153.78-.26 1.187-.32.278-.021.521-.113.731-.274.332-.197.698-.334 1.096-.411 1.749-1.933 1.916-3.988.502-6.164a4.6 4.6 0 0 0-1.689-1.096c-.274-.162-.579-.254-.913-.274a3.75 3.75 0 0 0-1.872.091 1.71 1.71 0 0 0-1.05-.137l-6.575 2.374a18.74 18.74 0 0 1-4.201.867c-.679.151-1.38.242-2.1.274l-2.831.137-4.018 1.004c-3.325.259-6.643.579-9.954.959a12.15 12.15 0 0 0-1.461.228c-.051.035-.081.081-.091.137-1.082.224-2.178.33-3.287.32-.132.102-.285.163-.457.183-.415.023-.826.069-1.233.137l-.594.32c-.828.338-1.681.597-2.557.776-.274-.019-.517.042-.731.183a63.19 63.19 0 0 1-1.826.502 11.07 11.07 0 0 1-2.009 0 .4.4 0 0 1-.183-.365c.544-.666 1.153-1.275 1.826-1.826a22.54 22.54 0 0 0 2.739-1.324c.243-.04.456-.131.639-.274.426-.051.822-.173 1.187-.365.13-.087.282-.117.457-.091a.65.65 0 0 0 .548-.183.42.42 0 0 1 .365-.091c.312-.003.586-.094.822-.274.775-.274 1.567-.502 2.374-.685.173-.132.355-.238.548-.32.268-.006.51-.067.73-.183a5.63 5.63 0 0 1 1.278-.457.65.65 0 0 0 .548-.183 1.62 1.62 0 0 0 .73-.183h.091a1.62 1.62 0 0 0 .731-.183c.454-.21.942-.332 1.461-.365a2.03 2.03 0 0 0 1.004-.183c.561-.112 1.109-.234 1.644-.365a10.97 10.97 0 0 0 1.278-.183c.242.008.456-.053.639-.183a14.67 14.67 0 0 0 1.918-.457 10.25 10.25 0 0 0 1.461-.457.98.98 0 0 1 .548-.183 12.71 12.71 0 0 1 .769-.214c.023-.003.047.004.067-.006h.001a1.89 1.89 0 0 0 .255-.11l.001-.001c.063-.032.119-.046.193-.075.053-.024.112-.04.171-.062a4.49 4.49 0 0 0 .919-.172c.242.008.456-.053.639-.183.293.028.567-.002.822-.091a2.28 2.28 0 0 0 1.096-.183 16.95 16.95 0 0 1 4.657-.502c.919-.717 1.238-1.646.959-2.785-.357-.746-.784-1.446-1.278-2.1-.786-.753-1.73-1.118-2.831-1.096-.969.027-1.928.133-2.876.32-1.723.53-3.458 1.017-5.205 1.461l-4.657.274c-.581.11-1.159.232-1.735.365-1.679.01-3.353.102-5.023.274a18.89 18.89 0 0 1-4.018.639c-.186.041-.354.117-.502.228l-.867.091a13.67 13.67 0 0 0-3.927 1.507l-2.648.228c-.276-.015-.55 0-.822.046-.051.035-.081.081-.091.137a34.68 34.68 0 0 1-3.288.594 6.3 6.3 0 0 1-2.009.548c-.62.369-1.259.704-1.918 1.004a9.42 9.42 0 0 0-3.561 2.009c-.205.104-.418.18-.639.228-.26.005-.473.096-.639.274-.394.06-.73.243-1.005.548-.094-.141-.216-.186-.365-.137a6.04 6.04 0 0 1-1.826 1.187 31.62 31.62 0 0 0-3.653 1.096c-1.346.199-2.685.427-4.018.685h-.457v-1.005a5.92 5.92 0 0 0-.183-1.735c-.234-1.604.375-2.745 1.826-3.424a65.12 65.12 0 0 1 3.516-3.79c.666-.845 1.138-1.788 1.415-2.831.563-.297 1.111-.616 1.644-.959.265-.219.478-.478.639-.776.087.075.178.09.274.046.461-.492.811-1.055 1.05-1.689a9.99 9.99 0 0 0 1.735-2.283l1.689-3.744c.347-1.84-.034-3.513-1.142-5.023l-.091-.548c-.388-.449-.829-.829-1.324-1.141-.235-.142-.482-.212-.741-.209zm-10.674 8.565c-.011.311.141.433.457.365a6.18 6.18 0 0 0 .822.183c.084-.004.144-.034.183-.091v-.274c-.501.023-.988-.038-1.461-.183zm-1.415 3.74c-.103-.004-.194.028-.275.095l-.457.913a2.26 2.26 0 0 0 .046 1.096 1.75 1.75 0 0 0 1.552 1.141c-.984-.297-1.44-.952-1.37-1.963a2.52 2.52 0 0 0 .137-.457c.244-.226.381-.5.411-.822a.49.49 0 0 0-.045-.004zm-8.056 6.865a.3.3 0 0 1 .023.001c-.015-.001-.03-.001-.046 0a.41.41 0 0 1 .023-.001zm-4.41 1.814a.59.59 0 0 0-.411.091 7.91 7.91 0 0 0-.228.868c.043.261.058.52.046.776a11.11 11.11 0 0 0-1.826 2.74c-.791 1.034-1.492 2.13-2.1 3.287-.586.417-.967.965-1.141 1.644a3.32 3.32 0 0 0-.776.822c-.248.137-.507.228-.776.274-.083.065-.113.156-.091.274.181-.031.303.03.365.183-1.194.875-2.153 1.971-2.877 3.287-.715.821-1.339 1.704-1.872 2.648-.284.87-.665 1.692-1.141 2.466-.596.566-1.16 1.16-1.689 1.781-.945.404-1.751.998-2.42 1.781a51.26 51.26 0 0 1-2.146 2.968 73.02 73.02 0 0 1-4.018 2.831 9.18 9.18 0 0 0-1.37 1.141c-.05.005-.08.036-.091.091.257.119.5.119.731 0a9.84 9.84 0 0 0 .731-.776l2.374-1.461a13.53 13.53 0 0 0 4.064-4.246 6.08 6.08 0 0 1 2.283-1.644 5.09 5.09 0 0 1 .959.685c.17.065.307.019.411-.137.593-1.732 1.232-3.437 1.918-5.114l3.196-4.566a3.29 3.29 0 0 1 .867-.731c.335-.152.578-.396.731-.731.51-.626.997-1.266 1.461-1.918.139-.001.245-.062.32-.183.025.084.071.144.137.183a4.14 4.14 0 0 0 1.187 0 1.73 1.73 0 0 0 1.096.091 17.32 17.32 0 0 0-.822-.183.52.52 0 0 1-.274-.091c-.408-.09-.834-.121-1.278-.091v-.274l1.141-2.283a169.63 169.63 0 0 1 3.105-4.292 2.96 2.96 0 0 0 .046-.73 4.71 4.71 0 0 0 .639.091 4.71 4.71 0 0 1 .639.091c-.397-.198-.762-.442-1.096-.73.067-.321.067-.625 0-.913zm83.736 3.565c.304-.008.61.022.917.088a3.2 3.2 0 0 0 1.004.274 5.2 5.2 0 0 1 1.598 1.096 8.4 8.4 0 0 1 .639 2.922c-.153.84-.534 1.556-1.141 2.146-.741.425-1.532.714-2.374.868a2.03 2.03 0 0 0-1.004.183c-.923.112-1.837.203-2.74.274-.492-.034-.949.057-1.37.274-.963.05-1.906.203-2.831.457-.633.008-1.242.099-1.826.274h-.091c-.327.004-.631.065-.913.183-.691.073-1.391.164-2.1.274-.279-.035-.522.025-.731.183-1.425.637-2.916 1.033-4.475 1.187-.476.01-.933.071-1.37.183a4.61 4.61 0 0 0-.913.046 6.16 6.16 0 0 1-1.37.32c-.3-.007-.573.053-.822.183h-.183c-.268.006-.51.067-.731.183-.82.099-1.612.281-2.374.548-.396.008-.762.099-1.096.274-.185.015-.368 0-.548-.046a.26.26 0 0 0 .091-.228 50.2 50.2 0 0 0 1.735-1.872 6.94 6.94 0 0 0 1.324-1.05c.089-1.117-.292-2.046-1.141-2.785a1.18 1.18 0 0 0-.457-.046c-.022-.118.009-.209.091-.274a1.11 1.11 0 0 0 .342-.039c.053-.015.105-.035.154-.059s.097-.052.143-.085h.183c.062.008.122.009.18.005a.81.81 0 0 0 .167-.029.75.75 0 0 0 .153-.062.81.81 0 0 0 .139-.097c.573-.106 1.121-.288 1.644-.548.725-.08 1.456-.202 2.192-.365h.274c.265-.057.508-.149.731-.274.323-.133.658-.24 1.004-.32a29.24 29.24 0 0 0 3.196-.594c.597-.008 1.175-.069 1.735-.183.284.022.558-.009.822-.091.274.019.517-.042.731-.183a27.28 27.28 0 0 0 6.118-1.963 19.27 19.27 0 0 0 2.648-.868c.339.007.674-.023 1.005-.091a2.57 2.57 0 0 1-.274 1.461 2.4 2.4 0 0 1-.274-.457c-.058.478.079.904.411 1.278.352-.782.641-1.589.867-2.42a3.84 3.84 0 0 1 .909-.134zm-56.706 1.458c-.02.107.01.199.091.274l.913.457.091-.091-1.096-.639zm1.644.867a1.73 1.73 0 0 0 .457.274c1.207.17 2.196.734 2.968 1.689a10.49 10.49 0 0 0 3.653 3.653c.046.18.06.363.046.548-.119.683-.515 1.063-1.187 1.141a.66.66 0 0 0-.183.228c.269.105.543.121.822.046.622-.527.866-1.181.731-1.963a47.83 47.83 0 0 0-1.918-1.415c-.353-.323-.673-.673-.959-1.05-.731-1.203-1.69-2.177-2.877-2.922l-1.552-.228zm-8.858 2.329l-.091.228a82.25 82.25 0 0 0 1.141 2.329 12.09 12.09 0 0 0 1.05 2.192.65.65 0 0 0 .183.548c-.026.175.004.327.091.457-.015.427 0 .853.046 1.278.021.113.067.204.137.274v.913c.118.022.209-.009.274-.091.06-.196.091-.409.091-.639a15.35 15.35 0 0 1-.32-2.648 69.96 69.96 0 0 0-1.233-2.055c-.304-.822-.624-1.629-.959-2.42a2.33 2.33 0 0 0-.411-.365zm40.637.457v.274c-1.004.149-2.008.21-3.013.183.033-.062.064-.123.091-.183.222-.009.44-.028.653-.059s.421-.072.625-.124c.549-.018 1.097-.049 1.644-.091zm-4.018 2.557a1.94 1.94 0 0 1 .959.913c.046.699.061 1.4.046 2.1.091.003.151-.043.183-.137.074-.653.059-1.307-.046-1.963-.173-.619-.553-.923-1.141-.913zm25.922.919a3.55 3.55 0 0 0-.444.04 18.49 18.49 0 0 0-7.671 3.561 5.56 5.56 0 0 1-1.918.685c-.177.152-.39.213-.639.183h-.183c-.177.152-.39.213-.639.183-.939.148-1.882.27-2.831.365a2.87 2.87 0 0 1-1.278.183 43.99 43.99 0 0 0-1.644.548c-.107.073-.222.132-.343.178a1.77 1.77 0 0 1-.387.096c-1.032.085-2.067.116-3.105.091l-2.1.365c-.925.23-1.838.489-2.739.776l-2.466.32a4.31 4.31 0 0 0-1.096.228c-.051.035-.081.081-.091.137a52.28 52.28 0 0 0-5.114 1.278 93.92 93.92 0 0 1-4.475.274l-1.872.183c-.071.177-.026.314.137.411a6.13 6.13 0 0 0 1.552-.046 87.36 87.36 0 0 0 4.383-.183c.498-.162 1.015-.284 1.552-.365a.65.65 0 0 0 .548-.183c1.844-.499 3.7-.956 5.57-1.37.035-.035.075-.064.121-.087a.58.58 0 0 1 .153-.05c.167-.023.334-.038.501-.045a5.34 5.34 0 0 1 .503 0 3.5 3.5 0 0 1 1.187-.183 22.71 22.71 0 0 1 1.37-.365c.184-.13.397-.191.639-.183h.183c.069-.07.161-.116.274-.137a14.83 14.83 0 0 1 1.644-.046 71.87 71.87 0 0 0 5.479-1.004 6.93 6.93 0 0 1 1.826-.183 23.48 23.48 0 0 1 2.192-.365c.306-.161.641-.252 1.004-.274a.42.42 0 0 0 .365-.091c.22-.116.463-.177.731-.183a3.24 3.24 0 0 1 .913-.32c.782-.536 1.603-.977 2.465-1.324a15.36 15.36 0 0 1 3.288-1.689c.374-.07.739-.054 1.096.046a2.44 2.44 0 0 0 .913.183 4.09 4.09 0 0 1 1.735 1.278 2.07 2.07 0 0 1 .365.731 11.61 11.61 0 0 1-.411 3.744 1.06 1.06 0 0 1-1.233.274 1.18 1.18 0 0 1-.457-.046 2.57 2.57 0 0 1-.594-1.05c-.046.18-.06.363-.046.548a1.44 1.44 0 0 0 1.004 1.187c-1.467.587-2.958 1.105-4.475 1.552-.268.006-.51.067-.731.183-.161.088-.343.118-.548.091-.274-.019-.517.042-.73.183a7.29 7.29 0 0 1-1.004.183.65.65 0 0 0-.548.183 1.67 1.67 0 0 0-.822.183c-.679.223-1.38.406-2.1.548a.65.65 0 0 0-.548.183c-.177.059-.36.09-.548.091-.668.038-1.307.16-1.918.365h-.183c-.393.023-.758.115-1.096.274-.385.134-.781.226-1.187.274-.384.016-.719.138-1.004.365a24.86 24.86 0 0 1-2.009.411c-.079.095-.171.171-.274.228-.531.14-1.048.292-1.552.457a1.41 1.41 0 0 0-.639.091 3.99 3.99 0 0 0-1.278.274 1.31 1.31 0 0 0-.913.274c-.211.045-.424.075-.639.091a1.69 1.69 0 0 0-.822.274h-.183a7.8 7.8 0 0 0-1.37.183c-.37-.01-.735.021-1.096.091a2.06 2.06 0 0 1 .502-.639 1.88 1.88 0 0 0 .274-.731 5.18 5.18 0 0 0-.32-2.739c-.206-.573-.405-1.152-.594-1.735a7.97 7.97 0 0 0 .502 2.009h0a7.1 7.1 0 0 1 .137 2.374c-.101.447-.299.842-.594 1.187a6.19 6.19 0 0 1-1.461.594l-3.47.411c-.792.122-1.582.122-2.374 0-.314.023-.618-.008-.913-.091-.331-.182-.697-.274-1.096-.274a1.76 1.76 0 0 0-.548-.091c-.184-.13-.397-.191-.639-.183-.541-.098-1.089-.159-1.644-.183a8.43 8.43 0 0 0-2.374.274 6.24 6.24 0 0 0-1.644.274c-.14-.007-.231.054-.274.183-.049.005-.08.036-.091.091.257.119.5.119.731 0a10.91 10.91 0 0 0 2.374-.411c.761-.061 1.522-.061 2.283 0 1.156.31 2.328.539 3.516.685.273.049.288.11.046.183-.507.118-.994.271-1.461.457a.86.86 0 0 0-.639.274c-.174-.026-.327.004-.457.091a6.52 6.52 0 0 0-1.461.457 44.45 44.45 0 0 1-1.644.183c-.902.071-1.784.192-2.648.365-.216-.015-.428 0-.639.046-.166.018-.288.094-.365.228-.129.043-.189.135-.183.274-.135.403-.196.829-.183 1.278a3.59 3.59 0 0 0 .091.822c0 .061.03.091.091.091a2.74 2.74 0 0 0 1.644-.365 2.52 2.52 0 0 1 .457-.137 19.31 19.31 0 0 1 1.461-.046.63.63 0 0 0-.365-.32c-.398-.049-.794-.034-1.187.046-.399.044-.795.105-1.187.183h-.274v-1.461a.42.42 0 0 0 .365-.091 18.79 18.79 0 0 0 2.557-.365 8.09 8.09 0 0 0 1.918-.274c.848-.237 1.7-.45 2.557-.639a2.69 2.69 0 0 0 1.278-.457c.66-.347 1.361-.438 2.1-.274.393.064.788.094 1.187.091h.183c.049-.005.08-.036.091-.091a3.91 3.91 0 0 0-.822-.137c.274-.098.548-.174.822-.228.501-.085 1.019-.146 1.552-.183a5.52 5.52 0 0 0 2.1-.365h.183c.811-.033 1.603-.124 2.374-.274.253-.106.527-.167.822-.183.242.008.456-.052.639-.183a2.29 2.29 0 0 1 1.004-.274c.692-.064 1.362-.185 2.009-.365.58-.082 1.159-.173 1.735-.274.502-.041.989-.102 1.461-.183a1.22 1.22 0 0 0 .457-.502 41.26 41.26 0 0 0 1.461-.502c.242.008.456-.053.639-.183.193-.088.405-.119.639-.091 1.08-.162 2.146-.344 3.196-.548.177-.059.36-.09.548-.091.552-.062 1.069-.215 1.552-.457.265-.098.539-.159.822-.183.274.019.517-.042.73-.183.242.008.456-.052.639-.183l2.648-.548c.426-.051.822-.173 1.187-.365a8.67 8.67 0 0 0 1.644-.548c.121-.06.243-.115.368-.164a4.53 4.53 0 0 1 .381-.131 4.66 4.66 0 0 1 .395-.097c.134-.027.27-.048.408-.064a61.42 61.42 0 0 0 2.1-.685c.59-.742 1.214-1.458 1.872-2.146.297-.544.388-1.122.274-1.735a19.16 19.16 0 0 1-.73-2.465 6.62 6.62 0 0 0-1.142-2.146 3.33 3.33 0 0 0-1.291-.223zm-.489.72a14.84 14.84 0 0 1 1.232.051c.346.402.636.844.867 1.324a.43.43 0 0 1-.046.457c-.433-.475-.919-.886-1.461-1.233a4.61 4.61 0 0 0-1.37-.137.28.28 0 0 1 .091-.274.63.63 0 0 0 .274-.183l.411-.006zm2.757 4.112h0c.143.001.259.063.348.186.198.759.015 1.398-.548 1.918a24.55 24.55 0 0 1 .137-2.1c.022-.002.043-.004.063-.003zm-50.471.277c-.764 1.773-1.495 3.569-2.192 5.388a7.98 7.98 0 0 0-.685 1.826c-.54.926-.951 1.9-1.233 2.922-.15.432-.211.889-.183 1.37a1.77 1.77 0 0 1-.091.731c-.116.22-.176.463-.183.731a1.02 1.02 0 0 0-.183.639 2 2 0 0 0-.274.913 144 144 0 0 0-.274 4.931 4.38 4.38 0 0 0 .091.913 27.19 27.19 0 0 0 .091 1.187c-.168 1.11-.229 2.236-.183 3.379a9.23 9.23 0 0 1-2.009.228c-.22.046-.281.153-.183.32a2.18 2.18 0 0 1 .822-.091c.613.024 1.221-.007 1.826-.091l.183.091a.53.53 0 0 1-.365.183c-.737.226-1.498.333-2.283.32a.44.44 0 0 1-.457.228c-.245-.015-.489 0-.731.046a.26.26 0 0 0-.091.228.57.57 0 0 0-.228.73 1.95 1.95 0 0 1 .548-.457 1.96 1.96 0 0 0 .411.091c.802-.038 1.593-.129 2.374-.274.857-.185 1.709-.429 2.557-.731a60.83 60.83 0 0 1 4.292-1.735c.426-.051.822-.173 1.187-.365a2.61 2.61 0 0 1 .731-.274 13.76 13.76 0 0 1 2.74-.731 1.1 1.1 0 0 1 .548-.091c.352-.028.688-.089 1.004-.183a8.03 8.03 0 0 1 1.187-.183c.242.008.456-.053.639-.183.43-.171.887-.263 1.37-.274a46.81 46.81 0 0 0 3.105-.274c.206-.066.42-.096.639-.091 1.141-.044 2.268-.105 3.379-.183 1.691-.146 3.365-.329 5.023-.548.242.008.456-.053.639-.183.274.019.517-.042.731-.183.334-.02.639-.112.913-.274a12.03 12.03 0 0 1 2.648-.639c.242.008.456-.053.639-.183.206-.066.42-.096.639-.091h.457c.013-.148-.048-.255-.183-.32-.128-.032-.252-.047-.373-.046-.155.002-.305.033-.449.091-.327.004-.631.065-.913.183a8.05 8.05 0 0 0-1.644.365c-.334.02-.639.112-.913.274a.52.52 0 0 0-.274.091 10.71 10.71 0 0 0-1.918.457.42.42 0 0 1-.365.091 75.22 75.22 0 0 1-3.014.274c-.49.051-.977.143-1.461.274l-2.374-.091c-.541-.018-1.058.043-1.552.183-.295.083-.599.114-.913.091-.117-.005-.234-.007-.351-.008a9.71 9.71 0 0 0-2.389.282 21.3 21.3 0 0 0-3.288.776 12.04 12.04 0 0 0-1.37.137c-.061 0-.091-.03-.091-.091.173-.549.02-.975-.457-1.278-.156-.113-.32-.171-.493-.176-.135-.004-.275.024-.42.085-.078.552-.338 1.039-.776 1.461-.063.076-.047.137.046.183.303-.302.562-.637.776-1.004 0-.4.198-.552.594-.457a1.35 1.35 0 0 1 .32.274c.069.313.053.617-.046.913-.405.083-.771.236-1.096.457a.42.42 0 0 0-.365.091c-.276.028-.55.073-.822.137-.131.034-.223.11-.274.228h-.183c-.88.252-1.732.557-2.557.913-.242-.008-.456.053-.639.183-.61.071-1.158.284-1.644.639h-.183l-1.461.639-.091-.091c.509-.343 1.057-.616 1.644-.822 0-.061.03-.091.091-.091.125-.032.216-.109.274-.228-.154-.72-.58-1.07-1.278-1.05.554.159.828.524.822 1.096-.209.009-.392.07-.548.183a6.5 6.5 0 0 0-.822.274c-.242-.008-.456.053-.639.183-.129.121-.236.091-.32-.091-.096-.515-.173-1.033-.228-1.552a18.13 18.13 0 0 0 .091-1.278v-.822a174.62 174.62 0 0 0 .091-6.301.84.84 0 0 1 .091-.457c.223-.457.375-.944.457-1.461.09-.422.151-.848.183-1.278h.091a21.83 21.83 0 0 1 .274-1.826 13.08 13.08 0 0 1 .959-2.1c.243-.742.501-1.472.776-2.192.657-1.498 1.266-3.02 1.826-4.566.201-.279.352-.584.457-.913zm-47.304 2.922c.091-.003.152.043.183.137-.18.434-.332.876-.457 1.324a.39.39 0 0 1-.457-.365c.209-.391.453-.756.73-1.096zm.548 4.885a3.97 3.97 0 0 0 .457.548 3.96 3.96 0 0 0 .548.457 65.02 65.02 0 0 0 1.67 1.214 65.39 65.39 0 0 0 1.708 1.16c.222.23.448.455.676.676a27.63 27.63 0 0 0 .694.648l2.071 1.857 2.039 1.887a2.4 2.4 0 0 1 .408.721c.091.259.138.536.14.832.004.199.013.397.029.595a10.5 10.5 0 0 0 .063.592h.274a4.14 4.14 0 0 0-.001-.607 3.73 3.73 0 0 0-.09-.58c.013-.102.013-.199-.003-.29s-.045-.177-.089-.258c-.036-.2-.077-.399-.123-.597s-.096-.395-.151-.59c.285-.618.771-.953 1.461-1.004a1.18 1.18 0 0 1 .457.046c.291.337.565.687.822 1.05.093-.046.109-.107.046-.183l-.594-.822-.274-.183a1.88 1.88 0 0 0-1.004 0c-.582.156-.947.521-1.096 1.096-.048.007-.095.006-.141-.001s-.09-.023-.133-.044l-2-1.818-2.018-1.789a33.61 33.61 0 0 0-.717-.762l-.744-.744-1.735-1.187-1.735-1.187a2.76 2.76 0 0 0-.426-.428 2.37 2.37 0 0 0-.487-.302zm80.372 4.885c-.344.002-.682.033-1.015.092-.141.073-.293.103-.457.091a3.2 3.2 0 0 0-1.004.274c-.098.085-.219.116-.365.091a5.66 5.66 0 0 0-1.187.274c-.13.087-.282.117-.457.091a5.66 5.66 0 0 0-1.187.274 1.1 1.1 0 0 1-.548.091 9.52 9.52 0 0 0-.822.091.26.26 0 0 0-.091-.228 7.74 7.74 0 0 0-1.187-.046 2.48 2.48 0 0 0-.685-.091c-.375-.014-.726.047-1.05.183a.42.42 0 0 1-.365.091c-.274-.019-.517.042-.731.183l-1.37.183c-.569.034-1.117.125-1.644.274a10.39 10.39 0 0 1-1.37.091c-.592-.107-1.171-.107-1.735 0a53.13 53.13 0 0 1-4.566-.183c-.665-.135-1.35-.196-2.055-.183-.458 0-.9.031-1.324.091h-.091c-.242-.008-.456.052-.639.183-.294-.014-.537.077-.731.274a.92.92 0 0 0 .365.457l.548.274a1.65 1.65 0 0 0 .868.183l.594-.091c-.139-.163-.321-.224-.548-.183-.174.026-.327-.004-.457-.091a6.51 6.51 0 0 0-.365-.183.33.33 0 0 1 .091-.137c.413-.016.808-.061 1.187-.137 1.151-.056 2.308.035 3.47.274l3.105.183a1.06 1.06 0 0 1-.731.365 1.67 1.67 0 0 0-.822.228c.5-.002.986-.048 1.461-.137a1.16 1.16 0 0 1 .822-.183v.913c-.458 1.614-1.462 2.74-3.014 3.379h-.731c-.025.175.004.327.091.457.022.054.068.085.137.091 1.757-.585 2.96-1.742 3.607-3.47.399-.608.46-1.247.183-1.918.359.138.74.198 1.141.183a3.19 3.19 0 0 0 .776-.091 4.37 4.37 0 0 0 1.552-.274h.091c.274.019.517-.042.731-.183.331-.068.666-.098 1.004-.091a27.74 27.74 0 0 0 1.644-.365 11.73 11.73 0 0 1 1.096-.091l.867.091.137.091.548.091h.365c.242.008.456-.052.639-.183.237-.07.48-.1.731-.091.481-.024.938-.115 1.37-.274.242.008.456-.052.639-.183.485-.053.942-.174 1.37-.365.242.008.456-.053.639-.183.658-.117 1.328-.117 2.009 0a.98.98 0 0 0 .548.183.45.45 0 0 1 .274.046 3.71 3.71 0 0 1 1.507 2.877c-.223.07-.451.086-.685.046-.036.261-.158.458-.365.594a2.9 2.9 0 0 0-.639.183h-.091c-.242-.008-.456.053-.639.183-.666.083-1.305.235-1.918.457l-3.379.365a.66.66 0 0 0 .183.228c.668.076 1.338.122 2.009.137 1.218.015 2.435 0 3.653-.046.289-.029.533-.136.731-.32.679-.325 1.319-.721 1.918-1.187.261-.387.338-.813.228-1.278a4.58 4.58 0 0 0-2.877-2.831c-.038-.066-.099-.112-.183-.137-.274-.033-.544-.048-.811-.046zm-21.836 2.74l-1.644.183v.274a5.9 5.9 0 0 1 1.826-.183.63.63 0 0 1 .365.091 2.03 2.03 0 0 0 1.37.091c-.011-.055-.042-.086-.091-.091a3.99 3.99 0 0 1-1.278-.274c-.164-.061-.347-.091-.548-.091zm-18.327 1.089c-.088-.002-.158.031-.21.098v1.096a3.01 3.01 0 0 0 .274 1.278l.457 1.096c.118.7.118 1.4 0 2.1a24.18 24.18 0 0 1-.639 1.233c.265.181.479.409.639.685l.091-.137c-.083-.128-.144-.265-.183-.411l.091-.731c.337-.788.443-1.61.32-2.465-.196-.558-.409-1.106-.639-1.644-.099-.39-.144-.785-.137-1.187v-1.005c-.022-.004-.043-.006-.064-.006zm17.583.023c-.182.001-.36.056-.534.166a2.57 2.57 0 0 0-.776.639 12.51 12.51 0 0 1-2.511 3.15c-.528.029-.558.105-.091.228 1.143-.915 2.071-2.011 2.785-3.288.572-.679 1.257-.816 2.055-.411.262.405.445.846.548 1.324.121-.886-.245-1.464-1.096-1.735-.128-.051-.255-.076-.379-.075zm-46.102.44c-.252.022-.45.144-.594.365a20.37 20.37 0 0 1 .046 1.187c.029.516-.031 1.018-.183 1.507.087 1.566.117 3.133.091 4.703a1.15 1.15 0 0 0 .183.731c.061.141.121.293.183.457.116-.446.085-.873-.091-1.278a2.36 2.36 0 0 1 .091-.913c.062.068.123.129.183.183a4.43 4.43 0 0 0 .32 1.461 61.92 61.92 0 0 0 1.141 2.42c.061.183.122.183.183 0a21.23 21.23 0 0 1-1.644-4.246 3.46 3.46 0 0 0-.183-1.096l-.183-2.739a4.01 4.01 0 0 0 .091-.183 2.9 2.9 0 0 0 .183-1.187v-.183c.07-.07.116-.161.137-.274.046-.303.061-.607.046-.913zm48.217.457a4.55 4.55 0 0 0 .091 1.278l.091-.639c-.003-.253-.064-.466-.183-.639zm21.2.205a2.07 2.07 0 0 1 .534.069c-.196.198-.439.289-.73.274a.88.88 0 0 0-.548.091c-.051.007-.101.01-.149.009a.85.85 0 0 1-.141-.012c-.046-.008-.09-.019-.133-.033s-.084-.033-.125-.055a.65.65 0 0 1 .548-.183 1.88 1.88 0 0 1 .744-.16zm-30.514 2.991a1.17 1.17 0 0 0-.457.731c-.321.62-.809 1.077-1.461 1.37.684-.131 1.202-.527 1.552-1.187.117-.28.269-.539.457-.776l-.091-.137zm-50.454 3.927c-.061.122-.061.244 0 .365 1.239 1.544 2.335 3.188 3.287 4.931.544.697 1.123 1.366 1.735 2.009a7.67 7.67 0 0 0 1.689 1.461.42.42 0 0 1 .365.091c.134.088.255.194.365.32.188.028.37.074.548.137.093.046.108.107.046.183-1.316 1.076-2.701 2.05-4.155 2.922-.116-.314-.298-.588-.548-.822-.04.389-.04.784 0 1.187-.445.405-.963.664-1.552.776-.333.363-.698.699-1.096 1.004-1.537.814-3.028 1.697-4.475 2.648a46.53 46.53 0 0 0-3.562 3.379 10.15 10.15 0 0 1-1.278 1.004c-1.134 1.165-2.352 2.23-3.653 3.196-1.471 1.501-3.023 2.902-4.657 4.201a12.01 12.01 0 0 1-2.739 1.507l.091.548h.274a9.59 9.59 0 0 1 1.552-.868 57.93 57.93 0 0 0 5.936-5.022 11.12 11.12 0 0 0 3.014-2.831c.366-.184.701-.412 1.004-.685a47.48 47.48 0 0 1 4.749-4.52 28.23 28.23 0 0 1 3.196-1.918 19.15 19.15 0 0 1 2.831-1.187 10.03 10.03 0 0 1 1.187-1.096l4.931-3.287c.566-.582 1.236-.993 2.009-1.233a6.1 6.1 0 0 0 1.37-.411c.051-.035.081-.081.091-.137.768-.155 1.499-.398 2.192-.731.464-.174.951-.296 1.461-.365.242.008.455-.053.639-.183.334-.02.639-.112.913-.274a2.9 2.9 0 0 0 1.187-.183l3.562-.457c.242.008.455-.053.639-.183a10.46 10.46 0 0 0 1.187-.091c.164.012.316-.018.457-.091.841-.05 1.663-.08 2.466-.091 1.051-.462 2.116-.888 3.196-1.278.306-.017.58-.109.822-.274a.52.52 0 0 1 .274.091c.32.077.625.016.913-.183a1.93 1.93 0 0 1 1.004-.274c.242.008.455-.053.639-.183a9.42 9.42 0 0 1 1.735-.091.42.42 0 0 1 .091-.365c.398-.008.794-.038 1.187-.091.022-.118-.009-.209-.091-.274-.065-.083-.156-.113-.274-.091a2.72 2.72 0 0 0-1.187 0c-.093-.169-.23-.291-.411-.365-.44.364-.912.668-1.415.913a14.85 14.85 0 0 0-1.644.046 2.22 2.22 0 0 0-.913.228.77.77 0 0 0-.365.046c-2.288 1.352-4.738 1.855-7.351 1.507a3.49 3.49 0 0 0-1.141.274 10.29 10.29 0 0 0-1.735.365h-.091a6.68 6.68 0 0 1-2.1 0c-.055-.128-.146-.219-.274-.274a75.99 75.99 0 0 0-3.744-.137c-.229-.351-.519-.64-.868-.867-.115.032-.145.093-.091.183.293.248.567.522.822.822a.45.45 0 0 1 .046.274.9.9 0 0 0-.548.091l.046.091c.217.085.446.116.685.091.729.35 1.49.518 2.283.502.042.038.072.083.091.137a9.73 9.73 0 0 1-.913.183 2.66 2.66 0 0 0-.218-.006c-.31.005-.603.067-.878.189-.403.033-.768.155-1.096.365l-2.009.731c-.018-.001-.036-.001-.054-.001-.269-.001-.495.091-.676.275a.77.77 0 0 0-.365.046c-.564.328-1.142.632-1.735.913-.686.143-1.295.006-1.826-.411-.193-.197-.437-.288-.731-.274-.171-.033-.308-.124-.411-.274-.418-.51-.875-.997-1.37-1.461a19.92 19.92 0 0 0-1.187-1.37c-.518-1.262-1.203-2.419-2.055-3.47l-.913-1.278c-.158-.056-.295-.148-.411-.274zm39.13 0c-.231.329-.536.573-.913.731-.151.174-.181.356-.091.548.455-.287.835-.652 1.141-1.096.048-.12.003-.181-.137-.183zm-23.026 5.194c.714 0 1.418.034 2.114.102-.192.102-.405.163-.639.183a.52.52 0 0 0 .274.502c-.387.108-.722.032-1.004-.228l-2.009-.365c-.139.007-.231-.054-.274-.183h.822l.717-.011zm7.635.142c.01-.001.02.001.03 0-.014.001-.029.001-.043.002z" class="B C D"/><path d="M137.357 33.228v38.456h7.62V50.551h5.537c1.389 0 2.506.424 3.353 1.27s1.27 1.981 1.27 3.403v16.459h7.62V54.818c0-2.235-.491-4.166-1.473-5.791s-2.387-2.878-4.216-3.759-4.014-1.321-6.554-1.321h-5.537V33.228zm-125.019.609v37.846h7.874V57.968H25.8l7.671 13.716h8.839l-8.636-15.087a11.17 11.17 0 0 0 4.775-4.064c1.185-1.829 1.778-4.03 1.778-6.604 0-2.642-.576-4.86-1.727-6.655s-2.743-3.149-4.775-4.064c-1.998-.914-4.301-1.372-6.909-1.372zm7.874 6.858h6.654c1.118 0 2.083.22 2.896.66s1.439 1.05 1.879 1.829c.474.779.711 1.694.711 2.743 0 1.016-.237 1.913-.711 2.692-.44.779-1.067 1.389-1.879 1.829s-1.778.66-2.896.66h-6.654zm38.303 2.642c-2.642 0-5.012.626-7.112 1.879s-3.776 2.963-5.029 5.131c-1.219 2.167-1.829 4.64-1.829 7.417 0 2.675.593 5.113 1.778 7.315s2.862 3.963 5.029 5.283c2.167 1.287 4.724 1.931 7.671 1.931h10.16v-6.604h-10.16c-1.49 0-2.76-.322-3.81-.965-1.016-.677-1.778-1.609-2.286-2.794-.244-.61-.404-1.272-.487-1.981h19.436c.135-.373.22-.813.254-1.321.068-.542.102-1.084.102-1.626 0-1.93-.305-3.708-.915-5.334-.61-1.659-1.507-3.116-2.692-4.369-1.151-1.253-2.574-2.218-4.267-2.895-1.693-.711-3.641-1.067-5.842-1.067zm61.417 0c-2.777 0-5.283.626-7.518 1.879a13.86 13.86 0 0 0-5.283 5.182c-1.287 2.167-1.931 4.623-1.931 7.366s.644 5.215 1.931 7.417c1.321 2.201 3.082 3.945 5.283 5.232 2.235 1.253 4.741 1.88 7.518 1.88 2.1 0 4.03-.356 5.791-1.067 1.761-.745 3.268-1.761 4.521-3.048s2.134-2.743 2.642-4.369l-6.604-2.896c-.474 1.389-1.27 2.489-2.387 3.302s-2.439 1.219-3.963 1.219c-1.321 0-2.506-.321-3.556-.965-1.016-.643-1.829-1.541-2.439-2.692-.576-1.151-.864-2.472-.864-3.963s.288-2.811.864-3.963c.61-1.151 1.423-2.049 2.439-2.692 1.05-.643 2.235-.965 3.556-.965 1.49 0 2.794.407 3.912 1.22 1.151.813 1.964 1.913 2.438 3.302l6.604-2.845a10.79 10.79 0 0 0-2.692-4.47c-1.253-1.287-2.76-2.286-4.521-2.997s-3.675-1.067-5.741-1.067zm-41.3.61v6.604H93.11v3.586l-7.671 1.24c-2.201.339-4.047.915-5.537 1.728-1.456.813-2.54 1.829-3.251 3.048-.711 1.185-1.067 2.557-1.067 4.114 0 1.659.389 3.099 1.168 4.318.779 1.185 1.897 2.1 3.353 2.744s3.183.965 5.182.965c1.49 0 2.845-.203 4.064-.61 1.219-.373 2.32-.948 3.302-1.727.333-.275.652-.583.965-.905v2.632h7.112V43.947zm-20.117 5.486c1.355 0 2.489.339 3.403 1.016.948.643 1.609 1.541 1.981 2.692.128.384.198.795.242 1.219H52.654c.087-.392.192-.768.325-1.117.474-1.253 1.185-2.202 2.133-2.845s2.083-.965 3.404-.965zM93.11 59.739v.871c0 1.118-.271 2.15-.813 3.099-.508.914-1.236 1.643-2.184 2.184s-2.049.813-3.302.813c-.948 0-1.744-.237-2.387-.711s-.965-1.135-.965-1.981c0-.914.288-1.609.864-2.083.576-.508 1.406-.863 2.489-1.067z"/></svg>
